<svg width="129" height="128" viewBox="0 0 129 128" fill="none" xmlns="http://www.w3.org/2000/svg">
<path d="M0.359375 64C0.359375 28.6538 29.0132 0 64.3594 0C99.7056 0 128.359 28.6538 128.359 64C128.359 99.3462 99.7056 128 64.3594 128C29.0132 128 0.359375 99.3462 0.359375 64Z" fill="#E5E7EB"/>
<path d="M83.0257 88V82.6667C83.0257 79.8377 81.9019 77.1246 79.9015 75.1242C77.9011 73.1238 75.188 72 72.359 72H56.359C53.5301 72 50.817 73.1238 48.8166 75.1242C46.8162 77.1246 45.6924 79.8377 45.6924 82.6667V88" stroke="#9CA3AF" stroke-width="2" stroke-linecap="round" stroke-linejoin="round"/>
<path d="M64.359 61.3333C70.2501 61.3333 75.0257 56.5577 75.0257 50.6667C75.0257 44.7756 70.2501 40 64.359 40C58.468 40 53.6924 44.7756 53.6924 50.6667C53.6924 56.5577 58.468 61.3333 64.359 61.3333Z" stroke="#9CA3AF" stroke-width="2" stroke-linecap="round" stroke-linejoin="round"/>
</svg>
