<svg width="322" height="267" viewBox="0 0 322 267" fill="none" xmlns="http://www.w3.org/2000/svg">
<path d="M168.226 1H82.1514L70.5583 42.7762L50.2308 84.83L23.0744 111.756L1 136.46L30.3797 154.226L66.5881 162.137L82.9454 154.226L130.27 165.19L146.945 144.094L174.737 140.208L161 178.877V221.833L146.945 266H187.32L214.333 234.539L230.161 190.372H274.593L283.045 140.208L321 138.404L295.273 47.4951L230.161 88.2998L168.226 1Z" fill="#020715" fill-opacity="0.65" stroke="#044778" stroke-opacity="0.2"/>
<path d="M142.192 87.848H148.048V90.416H142.192V87.848ZM136.144 82.592H138.712V85.832C138.712 87.224 138.592 88.576 138.352 89.888C138.112 91.2 137.744 92.424 137.248 93.56C136.752 94.696 136.12 95.696 135.352 96.56C134.6 97.424 133.704 98.12 132.664 98.648L130.672 96.104C131.616 95.656 132.424 95.072 133.096 94.352C133.784 93.632 134.352 92.816 134.8 91.904C135.264 90.976 135.6 90 135.808 88.976C136.032 87.936 136.144 86.888 136.144 85.832V82.592ZM136.792 82.592H139.336V85.832C139.336 86.872 139.44 87.904 139.648 88.928C139.856 89.936 140.168 90.88 140.584 91.76C141.016 92.64 141.568 93.424 142.24 94.112C142.912 94.784 143.712 95.328 144.64 95.744L142.72 98.288C141.68 97.776 140.784 97.104 140.032 96.272C139.28 95.424 138.664 94.456 138.184 93.368C137.72 92.28 137.368 91.096 137.128 89.816C136.904 88.536 136.792 87.208 136.792 85.832V82.592ZM146.44 80.864H149.632V103.16H146.44V80.864ZM161.462 93.392H164.654V96.776H161.462V93.392ZM153.038 91.472H173.15V94.016H153.038V91.472ZM155.27 95.888H170.726V103.136H167.534V98.408H155.27V95.888ZM155.606 81.464H158.75V83.408H167.438V81.464H170.606V90.032H155.606V81.464ZM158.75 85.808V87.536H167.438V85.808H158.75ZM177.444 82.184H191.364V84.704H177.444V82.184ZM175.14 91.64H195.252V94.232H175.14V91.64ZM183.468 93.464H186.684V103.136H183.468V93.464ZM189.732 82.184H192.876V84.152C192.876 84.952 192.86 85.8 192.828 86.696C192.812 87.592 192.748 88.576 192.636 89.648C192.524 90.704 192.316 91.888 192.012 93.2L188.892 92.816C189.308 90.976 189.548 89.368 189.612 87.992C189.692 86.6 189.732 85.32 189.732 84.152V82.184ZM130.984 122.68H151.096V125.2H130.984V122.68ZM139.36 123.952H142.552V132.136H139.36V123.952ZM133.264 110.752H136.432V113.272H145.576V110.752H148.72V120.568H133.264V110.752ZM136.432 115.768V118.048H145.576V115.768H136.432ZM158.222 111.064H160.862V113.032C160.862 114.52 160.63 115.92 160.166 117.232C159.718 118.544 159.03 119.688 158.102 120.664C157.174 121.64 155.982 122.376 154.526 122.872L152.846 120.304C154.126 119.904 155.158 119.328 155.942 118.576C156.726 117.824 157.302 116.968 157.67 116.008C158.038 115.048 158.222 114.056 158.222 113.032V111.064ZM158.87 111.064H161.462V112.888C161.462 113.864 161.63 114.808 161.966 115.72C162.302 116.616 162.838 117.416 163.574 118.12C164.31 118.808 165.262 119.344 166.43 119.728L164.774 122.224C163.414 121.744 162.294 121.048 161.414 120.136C160.55 119.224 159.91 118.152 159.494 116.92C159.078 115.672 158.87 114.328 158.87 112.888V111.064ZM168.446 109.912H171.662V122.92H168.446V109.912ZM164.126 123.496C166.478 123.496 168.334 123.88 169.694 124.648C171.054 125.4 171.734 126.448 171.734 127.792C171.734 129.168 171.054 130.232 169.694 130.984C168.334 131.752 166.478 132.136 164.126 132.136C161.774 132.136 159.918 131.752 158.558 130.984C157.198 130.232 156.518 129.168 156.518 127.792C156.518 126.448 157.198 125.4 158.558 124.648C159.918 123.88 161.774 123.496 164.126 123.496ZM164.126 125.968C163.166 125.968 162.358 126.032 161.702 126.16C161.046 126.288 160.542 126.496 160.19 126.784C159.854 127.056 159.686 127.392 159.686 127.792C159.686 128.208 159.854 128.56 160.19 128.848C160.542 129.12 161.046 129.328 161.702 129.472C162.358 129.6 163.166 129.664 164.126 129.664C165.086 129.664 165.894 129.6 166.55 129.472C167.206 129.328 167.702 129.12 168.038 128.848C168.374 128.56 168.542 128.208 168.542 127.792C168.542 127.392 168.374 127.056 168.038 126.784C167.702 126.496 167.206 126.288 166.55 126.16C165.894 126.032 165.086 125.968 164.126 125.968ZM164.39 113.944H168.926V116.536H164.39V113.944ZM175.571 130V127.341L181.784 121.588C182.313 121.077 182.756 120.616 183.114 120.207C183.477 119.798 183.753 119.398 183.94 119.006C184.128 118.608 184.222 118.179 184.222 117.719C184.222 117.207 184.105 116.767 183.872 116.398C183.639 116.023 183.321 115.736 182.918 115.537C182.514 115.332 182.057 115.23 181.545 115.23C181.011 115.23 180.545 115.338 180.148 115.554C179.75 115.77 179.443 116.08 179.227 116.483C179.011 116.886 178.903 117.366 178.903 117.923H175.401C175.401 116.781 175.659 115.79 176.176 114.949C176.693 114.108 177.418 113.457 178.349 112.997C179.281 112.537 180.355 112.307 181.571 112.307C182.821 112.307 183.909 112.528 184.835 112.972C185.767 113.409 186.491 114.017 187.009 114.795C187.526 115.574 187.784 116.466 187.784 117.472C187.784 118.131 187.653 118.781 187.392 119.423C187.136 120.065 186.679 120.778 186.02 121.562C185.361 122.341 184.432 123.276 183.233 124.366L180.685 126.864V126.983H188.014V130H175.571ZM190.281 120.352H210.369V122.872H190.281V120.352ZM198.729 117.016H201.921V121.336H198.729V117.016ZM192.705 116.008H208.089V118.504H192.705V116.008ZM192.705 110.848H207.969V113.368H195.873V117.592H192.705V110.848ZM200.241 123.976C202.641 123.976 204.529 124.336 205.905 125.056C207.281 125.76 207.969 126.768 207.969 128.08C207.969 129.376 207.281 130.376 205.905 131.08C204.529 131.8 202.641 132.16 200.241 132.16C197.841 132.16 195.953 131.8 194.577 131.08C193.217 130.376 192.537 129.376 192.537 128.08C192.537 126.768 193.217 125.76 194.577 125.056C195.953 124.336 197.841 123.976 200.241 123.976ZM200.241 126.4C199.249 126.4 198.417 126.464 197.745 126.592C197.089 126.704 196.593 126.888 196.257 127.144C195.921 127.384 195.753 127.688 195.753 128.056C195.753 128.44 195.921 128.76 196.257 129.016C196.593 129.256 197.089 129.44 197.745 129.568C198.417 129.68 199.249 129.736 200.241 129.736C201.233 129.736 202.057 129.68 202.713 129.568C203.385 129.44 203.889 129.256 204.225 129.016C204.561 128.76 204.729 128.44 204.729 128.056C204.729 127.688 204.561 127.384 204.225 127.144C203.889 126.888 203.385 126.704 202.713 126.592C202.057 126.464 201.233 126.4 200.241 126.4Z" fill="white"/>
</svg>
