<svg width="354" height="388" viewBox="0 0 354 388" fill="none" xmlns="http://www.w3.org/2000/svg">
<path d="M277.621 263.189L246.501 387L69.4637 380.931V244.981L1 127.846L80.5285 73.8302L162.132 95.6792L211.923 1L265.864 30.739L230.595 115.101L353 156.978L277.621 263.189Z" fill="#020715" fill-opacity="0.65" stroke="#044778" stroke-opacity="0.2"/>
<path d="M139.008 230.352H159.096V232.872H139.008V230.352ZM147.456 227.016H150.648V231.336H147.456V227.016ZM141.432 226.008H156.816V228.504H141.432V226.008ZM141.432 220.848H156.696V223.368H144.6V227.592H141.432V220.848ZM148.968 233.976C151.368 233.976 153.256 234.336 154.632 235.056C156.008 235.76 156.696 236.768 156.696 238.08C156.696 239.376 156.008 240.376 154.632 241.08C153.256 241.8 151.368 242.16 148.968 242.16C146.568 242.16 144.68 241.8 143.304 241.08C141.944 240.376 141.264 239.376 141.264 238.08C141.264 236.768 141.944 235.76 143.304 235.056C144.68 234.336 146.568 233.976 148.968 233.976ZM148.968 236.4C147.976 236.4 147.144 236.464 146.472 236.592C145.816 236.704 145.32 236.888 144.984 237.144C144.648 237.384 144.48 237.688 144.48 238.056C144.48 238.44 144.648 238.76 144.984 239.016C145.32 239.256 145.816 239.44 146.472 239.568C147.144 239.68 147.976 239.736 148.968 239.736C149.96 239.736 150.784 239.68 151.44 239.568C152.112 239.44 152.616 239.256 152.952 239.016C153.288 238.76 153.456 238.44 153.456 238.056C153.456 237.688 153.288 237.384 152.952 237.144C152.616 236.888 152.112 236.704 151.44 236.592C150.784 236.464 149.96 236.4 148.968 236.4ZM175.342 219.888H178.534V232.416H175.342V219.888ZM177.67 224.568H181.486V227.184H177.67V224.568ZM164.086 233.424H178.534V241.896H164.086V233.424ZM175.438 235.944H167.23V239.376H175.438V235.944ZM161.95 220.944H165.142V230.04H161.95V220.944ZM161.95 228.672H163.798C165.318 228.672 166.894 228.616 168.526 228.504C170.174 228.376 171.87 228.144 173.614 227.808L173.974 230.352C172.182 230.72 170.43 230.976 168.718 231.12C167.022 231.248 165.382 231.312 163.798 231.312H161.95V228.672ZM185.444 221.184H199.364V223.704H185.444V221.184ZM183.14 230.64H203.252V233.232H183.14V230.64ZM191.468 232.464H194.684V242.136H191.468V232.464ZM197.732 221.184H200.876V223.152C200.876 223.952 200.86 224.8 200.828 225.696C200.812 226.592 200.748 227.576 200.636 228.648C200.524 229.704 200.316 230.888 200.012 232.2L196.892 231.816C197.308 229.976 197.548 228.368 197.612 226.992C197.692 225.6 197.732 224.32 197.732 223.152V221.184ZM154.248 248.912H157.44V265.112H154.248V248.912ZM142.632 268.184H158.016V270.752H142.632V268.184ZM142.632 263.552H145.824V269.504H142.632V263.552ZM144.192 250.136H146.832V252.296C146.832 253.736 146.6 255.112 146.136 256.424C145.688 257.736 145 258.888 144.072 259.88C143.144 260.872 141.96 261.624 140.52 262.136L138.888 259.592C140.136 259.16 141.144 258.56 141.912 257.792C142.696 257.024 143.272 256.16 143.64 255.2C144.008 254.24 144.192 253.272 144.192 252.296V250.136ZM144.84 250.136H147.432V252.296C147.432 253.016 147.528 253.728 147.72 254.432C147.928 255.12 148.24 255.776 148.656 256.4C149.072 257.008 149.608 257.56 150.264 258.056C150.92 258.552 151.696 258.944 152.592 259.232L150.984 261.752C149.576 261.288 148.416 260.584 147.504 259.64C146.592 258.696 145.92 257.592 145.488 256.328C145.056 255.064 144.84 253.72 144.84 252.296V250.136ZM171.286 262.472C172.838 262.472 174.174 262.648 175.294 263C176.414 263.336 177.278 263.832 177.886 264.488C178.494 265.128 178.798 265.904 178.798 266.816C178.798 267.712 178.494 268.488 177.886 269.144C177.278 269.8 176.414 270.296 175.294 270.632C174.174 270.984 172.838 271.16 171.286 271.16C169.75 271.16 168.414 270.984 167.278 270.632C166.158 270.296 165.286 269.8 164.662 269.144C164.054 268.488 163.75 267.712 163.75 266.816C163.75 265.904 164.054 265.128 164.662 264.488C165.286 263.832 166.158 263.336 167.278 263C168.414 262.648 169.75 262.472 171.286 262.472ZM171.286 264.992C170.342 264.992 169.55 265.056 168.91 265.184C168.27 265.312 167.782 265.512 167.446 265.784C167.11 266.04 166.942 266.384 166.942 266.816C166.942 267.232 167.11 267.584 167.446 267.872C167.782 268.144 168.27 268.352 168.91 268.496C169.55 268.624 170.342 268.688 171.286 268.688C172.23 268.688 173.022 268.624 173.662 268.496C174.318 268.352 174.806 268.144 175.126 267.872C175.462 267.584 175.63 267.232 175.63 266.816C175.63 266.384 175.462 266.04 175.126 265.784C174.806 265.512 174.318 265.312 173.662 265.184C173.022 265.056 172.23 264.992 171.286 264.992ZM175.342 248.912H178.534V261.992H175.342V248.912ZM177.67 254.072H181.486V256.688H177.67V254.072ZM161.686 250.304H164.854V253.064H169.222V250.304H172.366V260.768H161.686V250.304ZM164.854 255.512V258.272H169.222V255.512H164.854ZM183.164 259.352H203.252V261.872H183.164V259.352ZM191.612 256.016H194.804V260.336H191.612V256.016ZM185.588 255.008H200.972V257.504H185.588V255.008ZM185.588 249.848H200.852V252.368H188.756V256.592H185.588V249.848ZM193.124 262.976C195.524 262.976 197.412 263.336 198.788 264.056C200.164 264.76 200.852 265.768 200.852 267.08C200.852 268.376 200.164 269.376 198.788 270.08C197.412 270.8 195.524 271.16 193.124 271.16C190.724 271.16 188.836 270.8 187.46 270.08C186.1 269.376 185.42 268.376 185.42 267.08C185.42 265.768 186.1 264.76 187.46 264.056C188.836 263.336 190.724 262.976 193.124 262.976ZM193.124 265.4C192.132 265.4 191.3 265.464 190.628 265.592C189.972 265.704 189.476 265.888 189.14 266.144C188.804 266.384 188.636 266.688 188.636 267.056C188.636 267.44 188.804 267.76 189.14 268.016C189.476 268.256 189.972 268.44 190.628 268.568C191.3 268.68 192.132 268.736 193.124 268.736C194.116 268.736 194.94 268.68 195.596 268.568C196.268 268.44 196.772 268.256 197.108 268.016C197.444 267.76 197.612 267.44 197.612 267.056C197.612 266.688 197.444 266.384 197.108 266.144C196.772 265.888 196.268 265.704 195.596 265.592C194.94 265.464 194.116 265.4 193.124 265.4Z" fill="white"/>
</svg>
