<svg width="180" height="269" viewBox="0 0 180 269" fill="none" xmlns="http://www.w3.org/2000/svg">
<path d="M25.9339 228.646L133.981 268L179 150.544L167.918 68.8095L127.747 1L38.4008 38.5374L1 119.667L52.9455 150.544L25.9339 228.646Z" fill="#020715" fill-opacity="0.65" stroke="#044778" stroke-opacity="0.2"/>
<path d="M68.008 113.352H88.096V115.872H68.008V113.352ZM76.456 110.016H79.648V114.336H76.456V110.016ZM70.432 109.008H85.816V111.504H70.432V109.008ZM70.432 103.848H85.696V106.368H73.6V110.592H70.432V103.848ZM77.968 116.976C80.368 116.976 82.256 117.336 83.632 118.056C85.008 118.76 85.696 119.768 85.696 121.08C85.696 122.376 85.008 123.376 83.632 124.08C82.256 124.8 80.368 125.16 77.968 125.16C75.568 125.16 73.68 124.8 72.304 124.08C70.944 123.376 70.264 122.376 70.264 121.08C70.264 119.768 70.944 118.76 72.304 118.056C73.68 117.336 75.568 116.976 77.968 116.976ZM77.968 119.4C76.976 119.4 76.144 119.464 75.472 119.592C74.816 119.704 74.32 119.888 73.984 120.144C73.648 120.384 73.48 120.688 73.48 121.056C73.48 121.44 73.648 121.76 73.984 122.016C74.32 122.256 74.816 122.44 75.472 122.568C76.144 122.68 76.976 122.736 77.968 122.736C78.96 122.736 79.784 122.68 80.44 122.568C81.112 122.44 81.616 122.256 81.952 122.016C82.288 121.76 82.456 121.44 82.456 121.056C82.456 120.688 82.288 120.384 81.952 120.144C81.616 119.888 81.112 119.704 80.44 119.592C79.784 119.464 78.96 119.4 77.968 119.4ZM104.342 102.888H107.534V115.416H104.342V102.888ZM106.67 107.568H110.486V110.184H106.67V107.568ZM93.0861 116.424H107.534V124.896H93.0861V116.424ZM104.438 118.944H96.2301V122.376H104.438V118.944ZM90.9501 103.944H94.1421V113.04H90.9501V103.944ZM90.9501 111.672H92.7981C94.3181 111.672 95.8941 111.616 97.5261 111.504C99.1741 111.376 100.87 111.144 102.614 110.808L102.974 113.352C101.182 113.72 99.4301 113.976 97.7181 114.12C96.0221 114.248 94.3821 114.312 92.7981 114.312H90.9501V111.672ZM114.444 104.184H128.364V106.704H114.444V104.184ZM112.14 113.64H132.252V116.232H112.14V113.64ZM120.468 115.464H123.684V125.136H120.468V115.464ZM126.732 104.184H129.876V106.152C129.876 106.952 129.86 107.8 129.828 108.696C129.812 109.592 129.748 110.576 129.636 111.648C129.524 112.704 129.316 113.888 129.012 115.2L125.892 114.816C126.308 112.976 126.548 111.368 126.612 109.992C126.692 108.6 126.732 107.32 126.732 106.152V104.184ZM74.224 132.536C75.376 132.536 76.392 132.76 77.272 133.208C78.168 133.64 78.872 134.24 79.384 135.008C79.912 135.76 80.176 136.632 80.176 137.624C80.176 138.616 79.912 139.496 79.384 140.264C78.872 141.016 78.168 141.608 77.272 142.04C76.392 142.472 75.376 142.688 74.224 142.688C73.104 142.688 72.096 142.472 71.2 142.04C70.304 141.608 69.592 141.016 69.064 140.264C68.552 139.496 68.296 138.616 68.296 137.624C68.296 136.632 68.552 135.752 69.064 134.984C69.592 134.216 70.304 133.616 71.2 133.184C72.096 132.752 73.104 132.536 74.224 132.536ZM74.248 135.128C73.704 135.128 73.216 135.232 72.784 135.44C72.352 135.632 72.008 135.912 71.752 136.28C71.512 136.648 71.392 137.096 71.392 137.624C71.392 138.152 71.512 138.608 71.752 138.992C72.008 139.36 72.344 139.64 72.76 139.832C73.192 140.024 73.688 140.12 74.248 140.12C74.792 140.12 75.272 140.024 75.688 139.832C76.12 139.64 76.456 139.36 76.696 138.992C76.952 138.608 77.08 138.152 77.08 137.624C77.08 137.096 76.952 136.648 76.696 136.28C76.456 135.912 76.12 135.632 75.688 135.44C75.256 135.232 74.776 135.128 74.248 135.128ZM83.248 131.912H86.44V143.024H83.248V131.912ZM71.632 143.936H86.44V150.008H74.8V152.72H71.656V147.704H83.272V146.384H71.632V143.936ZM71.656 151.4H86.992V153.896H71.656V151.4ZM90.0381 142.616H110.15V145.136H90.0381V142.616ZM98.4861 140H101.654V143.312H98.4861V140ZM100.046 146.192C102.462 146.192 104.35 146.544 105.71 147.248C107.07 147.936 107.75 148.912 107.75 150.176C107.75 151.456 107.07 152.432 105.71 153.104C104.35 153.792 102.462 154.136 100.046 154.136C97.6461 154.136 95.7581 153.792 94.3821 153.104C93.0221 152.432 92.3421 151.456 92.3421 150.176C92.3421 148.912 93.0221 147.936 94.3821 147.248C95.7581 146.544 97.6461 146.192 100.046 146.192ZM100.046 148.592C99.0541 148.592 98.2221 148.648 97.5501 148.76C96.8941 148.872 96.3981 149.048 96.0621 149.288C95.7261 149.512 95.5581 149.808 95.5581 150.176C95.5581 150.528 95.7261 150.824 96.0621 151.064C96.3981 151.288 96.8941 151.464 97.5501 151.592C98.2221 151.704 99.0541 151.76 100.046 151.76C101.054 151.76 101.886 151.704 102.542 151.592C103.198 151.464 103.694 151.288 104.03 151.064C104.366 150.824 104.534 150.528 104.534 150.176C104.534 149.808 104.366 149.512 104.03 149.288C103.694 149.048 103.198 148.872 102.542 148.76C101.886 148.648 101.054 148.592 100.046 148.592ZM92.6061 132.536H95.7501V134.408H104.438V132.536H107.606V140.96H92.6061V132.536ZM95.7501 136.784V138.464H104.438V136.784H95.7501ZM112.164 142.352H132.252V144.872H112.164V142.352ZM120.612 139.016H123.804V143.336H120.612V139.016ZM114.588 138.008H129.972V140.504H114.588V138.008ZM114.588 132.848H129.852V135.368H117.756V139.592H114.588V132.848ZM122.124 145.976C124.524 145.976 126.412 146.336 127.788 147.056C129.164 147.76 129.852 148.768 129.852 150.08C129.852 151.376 129.164 152.376 127.788 153.08C126.412 153.8 124.524 154.16 122.124 154.16C119.724 154.16 117.836 153.8 116.46 153.08C115.1 152.376 114.42 151.376 114.42 150.08C114.42 148.768 115.1 147.76 116.46 147.056C117.836 146.336 119.724 145.976 122.124 145.976ZM122.124 148.4C121.132 148.4 120.3 148.464 119.628 148.592C118.972 148.704 118.476 148.888 118.14 149.144C117.804 149.384 117.636 149.688 117.636 150.056C117.636 150.44 117.804 150.76 118.14 151.016C118.476 151.256 118.972 151.44 119.628 151.568C120.3 151.68 121.132 151.736 122.124 151.736C123.116 151.736 123.94 151.68 124.596 151.568C125.268 151.44 125.772 151.256 126.108 151.016C126.444 150.76 126.612 150.44 126.612 150.056C126.612 149.688 126.444 149.384 126.108 149.144C125.772 148.888 125.268 148.704 124.596 148.592C123.94 148.464 123.116 148.4 122.124 148.4Z" fill="white"/>
</svg>
