<svg width="195" height="96" viewBox="0 0 195 96" fill="none" xmlns="http://www.w3.org/2000/svg">
<path d="M12.5313 57.7481L1 82.009L122.879 94H157.954L194 71.6558V29.0255L187.058 6.71664L137.774 15.3613L114.871 6.71664L37.3556 1L33.0313 29.0255L16.5352 38.2279L12.5313 57.7481Z" fill="#020715" fill-opacity="0.65" stroke="#044778" stroke-opacity="0.2"/>
<path d="M75.192 34.848H81.048V37.416H75.192V34.848ZM69.144 29.592H71.712V32.832C71.712 34.224 71.592 35.576 71.352 36.888C71.112 38.2 70.744 39.424 70.248 40.56C69.752 41.696 69.12 42.696 68.352 43.56C67.6 44.424 66.704 45.12 65.664 45.648L63.672 43.104C64.616 42.656 65.424 42.072 66.096 41.352C66.784 40.632 67.352 39.816 67.8 38.904C68.264 37.976 68.6 37 68.808 35.976C69.032 34.936 69.144 33.888 69.144 32.832V29.592ZM69.792 29.592H72.336V32.832C72.336 33.872 72.44 34.904 72.648 35.928C72.856 36.936 73.168 37.88 73.584 38.76C74.016 39.64 74.568 40.424 75.24 41.112C75.912 41.784 76.712 42.328 77.64 42.744L75.72 45.288C74.68 44.776 73.784 44.104 73.032 43.272C72.28 42.424 71.664 41.456 71.184 40.368C70.72 39.28 70.368 38.096 70.128 36.816C69.904 35.536 69.792 34.208 69.792 32.832V29.592ZM79.44 27.864H82.632V50.16H79.44V27.864ZM94.4621 40.392H97.6541V43.776H94.4621V40.392ZM86.0381 38.472H106.15V41.016H86.0381V38.472ZM88.2701 42.888H103.726V50.136H100.534V45.408H88.2701V42.888ZM88.6061 28.464H91.7501V30.408H100.438V28.464H103.606V37.032H88.6061V28.464ZM91.7501 32.808V34.536H100.438V32.808H91.7501ZM110.444 29.184H124.364V31.704H110.444V29.184ZM108.14 38.64H128.252V41.232H108.14V38.64ZM116.468 40.464H119.684V50.136H116.468V40.464ZM122.732 29.184H125.876V31.152C125.876 31.952 125.86 32.8 125.828 33.696C125.812 34.592 125.748 35.576 125.636 36.648C125.524 37.704 125.316 38.888 125.012 40.2L121.892 39.816C122.308 37.976 122.548 36.368 122.612 34.992C122.692 33.6 122.732 32.32 122.732 31.152V29.184ZM69.144 58.064H71.784V60.032C71.784 61.52 71.552 62.92 71.088 64.232C70.64 65.544 69.952 66.688 69.024 67.664C68.096 68.64 66.904 69.376 65.448 69.872L63.768 67.304C65.048 66.904 66.08 66.328 66.864 65.576C67.648 64.824 68.224 63.968 68.592 63.008C68.96 62.048 69.144 61.056 69.144 60.032V58.064ZM69.792 58.064H72.384V59.888C72.384 60.864 72.552 61.808 72.888 62.72C73.224 63.616 73.76 64.416 74.496 65.12C75.232 65.808 76.184 66.344 77.352 66.728L75.696 69.224C74.336 68.744 73.216 68.048 72.336 67.136C71.472 66.224 70.832 65.152 70.416 63.92C70 62.672 69.792 61.328 69.792 59.888V58.064ZM79.368 56.912H82.584V69.92H79.368V56.912ZM75.048 70.496C77.4 70.496 79.256 70.88 80.616 71.648C81.976 72.4 82.656 73.448 82.656 74.792C82.656 76.168 81.976 77.232 80.616 77.984C79.256 78.752 77.4 79.136 75.048 79.136C72.696 79.136 70.84 78.752 69.48 77.984C68.12 77.232 67.44 76.168 67.44 74.792C67.44 73.448 68.12 72.4 69.48 71.648C70.84 70.88 72.696 70.496 75.048 70.496ZM75.048 72.968C74.088 72.968 73.28 73.032 72.624 73.16C71.968 73.288 71.464 73.496 71.112 73.784C70.776 74.056 70.608 74.392 70.608 74.792C70.608 75.208 70.776 75.56 71.112 75.848C71.464 76.12 71.968 76.328 72.624 76.472C73.28 76.6 74.088 76.664 75.048 76.664C76.008 76.664 76.816 76.6 77.472 76.472C78.128 76.328 78.624 76.12 78.96 75.848C79.296 75.56 79.464 75.208 79.464 74.792C79.464 74.392 79.296 74.056 78.96 73.784C78.624 73.496 78.128 73.288 77.472 73.16C76.816 73.032 76.008 72.968 75.048 72.968ZM75.312 60.944H79.848V63.536H75.312V60.944ZM98.1101 62.264H102.334V64.856H98.1101V62.264ZM101.446 56.912H104.662V70.112H101.446V56.912ZM97.1261 70.592C98.6941 70.592 100.046 70.76 101.182 71.096C102.318 71.432 103.19 71.92 103.798 72.56C104.422 73.2 104.734 73.968 104.734 74.864C104.734 76.24 104.054 77.296 102.694 78.032C101.334 78.784 99.4781 79.16 97.1261 79.16C94.7741 79.16 92.9181 78.784 91.5581 78.032C90.1981 77.296 89.5181 76.24 89.5181 74.864C89.5181 73.968 89.8221 73.2 90.4301 72.56C91.0541 71.92 91.9341 71.432 93.0701 71.096C94.2061 70.76 95.5581 70.592 97.1261 70.592ZM97.1261 73.016C96.1661 73.016 95.3581 73.088 94.7021 73.232C94.0461 73.36 93.5421 73.56 93.1901 73.832C92.8541 74.104 92.6861 74.448 92.6861 74.864C92.6861 75.28 92.8541 75.632 93.1901 75.92C93.5421 76.192 94.0461 76.4 94.7021 76.544C95.3581 76.672 96.1661 76.736 97.1261 76.736C98.0861 76.736 98.8941 76.672 99.5501 76.544C100.206 76.4 100.702 76.192 101.038 75.92C101.374 75.632 101.542 75.28 101.542 74.864C101.542 74.448 101.374 74.104 101.038 73.832C100.702 73.56 100.206 73.36 99.5501 73.232C98.8941 73.088 98.0861 73.016 97.1261 73.016ZM91.1981 59.12H93.7901V60.536C93.7901 61.944 93.5661 63.288 93.1181 64.568C92.6701 65.848 91.9821 66.976 91.0541 67.952C90.1421 68.912 88.9741 69.632 87.5501 70.112L85.9421 67.592C86.8541 67.288 87.6381 66.88 88.2941 66.368C88.9661 65.856 89.5101 65.288 89.9261 64.664C90.3581 64.024 90.6781 63.352 90.8861 62.648C91.0941 61.944 91.1981 61.24 91.1981 60.536V59.12ZM91.8701 59.12H94.4141V60.512C94.4141 61.392 94.5901 62.256 94.9421 63.104C95.2941 63.952 95.8381 64.72 96.5741 65.408C97.3261 66.096 98.2861 66.64 99.4541 67.04L97.8941 69.536C96.5181 69.072 95.3821 68.392 94.4861 67.496C93.6061 66.584 92.9501 65.528 92.5181 64.328C92.0861 63.112 91.8701 61.84 91.8701 60.512V59.12ZM86.8061 58.256H98.7581V60.776H86.8061V58.256ZM108.571 77V74.3409L114.784 68.5881C115.313 68.0767 115.756 67.6165 116.114 67.2074C116.477 66.7983 116.753 66.3977 116.94 66.0057C117.128 65.608 117.222 65.179 117.222 64.7188C117.222 64.2074 117.105 63.767 116.872 63.3977C116.639 63.0227 116.321 62.7358 115.918 62.5369C115.514 62.3324 115.057 62.2301 114.545 62.2301C114.011 62.2301 113.545 62.3381 113.148 62.554C112.75 62.7699 112.443 63.0795 112.227 63.483C112.011 63.8864 111.903 64.3665 111.903 64.9233H108.401C108.401 63.7812 108.659 62.7898 109.176 61.9489C109.693 61.108 110.418 60.4574 111.349 59.9972C112.281 59.5369 113.355 59.3068 114.571 59.3068C115.821 59.3068 116.909 59.5284 117.835 59.9716C118.767 60.4091 119.491 61.017 120.009 61.7955C120.526 62.5739 120.784 63.4659 120.784 64.4716C120.784 65.1307 120.653 65.7812 120.392 66.4233C120.136 67.0653 119.679 67.7784 119.02 68.5625C118.361 69.3409 117.432 70.2756 116.233 71.3665L113.685 73.8636V73.983H121.014V77H108.571ZM123.281 67.352H143.369V69.872H123.281V67.352ZM131.729 64.016H134.921V68.336H131.729V64.016ZM125.705 63.008H141.089V65.504H125.705V63.008ZM125.705 57.848H140.969V60.368H128.873V64.592H125.705V57.848ZM133.241 70.976C135.641 70.976 137.529 71.336 138.905 72.056C140.281 72.76 140.969 73.768 140.969 75.08C140.969 76.376 140.281 77.376 138.905 78.08C137.529 78.8 135.641 79.16 133.241 79.16C130.841 79.16 128.953 78.8 127.577 78.08C126.217 77.376 125.537 76.376 125.537 75.08C125.537 73.768 126.217 72.76 127.577 72.056C128.953 71.336 130.841 70.976 133.241 70.976ZM133.241 73.4C132.249 73.4 131.417 73.464 130.745 73.592C130.089 73.704 129.593 73.888 129.257 74.144C128.921 74.384 128.753 74.688 128.753 75.056C128.753 75.44 128.921 75.76 129.257 76.016C129.593 76.256 130.089 76.44 130.745 76.568C131.417 76.68 132.249 76.736 133.241 76.736C134.233 76.736 135.057 76.68 135.713 76.568C136.385 76.44 136.889 76.256 137.225 76.016C137.561 75.76 137.729 75.44 137.729 75.056C137.729 74.688 137.561 74.384 137.225 74.144C136.889 73.888 136.385 73.704 135.713 73.592C135.057 73.464 134.233 73.4 133.241 73.4Z" fill="white"/>
</svg>
