<svg width="135" height="152" viewBox="0 0 135 152" fill="none" xmlns="http://www.w3.org/2000/svg">
<path d="M113.804 1H80.2634L29.7369 37.3396L15.8421 56.1668L5.10527 79.5962L19.7895 98.5628L1 139.425L80.2634 151L100.735 70.2308L131 48.9757L113.804 1Z" fill="#020715" fill-opacity="0.65" stroke="#044778" stroke-opacity="0.2"/>
<path d="M32.192 61.848H38.048V64.416H32.192V61.848ZM26.144 56.592H28.712V59.832C28.712 61.224 28.592 62.576 28.352 63.888C28.112 65.2 27.744 66.424 27.248 67.56C26.752 68.696 26.12 69.696 25.352 70.56C24.6 71.424 23.704 72.12 22.664 72.648L20.672 70.104C21.616 69.656 22.424 69.072 23.096 68.352C23.784 67.632 24.352 66.816 24.8 65.904C25.264 64.976 25.6 64 25.808 62.976C26.032 61.936 26.144 60.888 26.144 59.832V56.592ZM26.792 56.592H29.336V59.832C29.336 60.872 29.44 61.904 29.648 62.928C29.856 63.936 30.168 64.88 30.584 65.76C31.016 66.64 31.568 67.424 32.24 68.112C32.912 68.784 33.712 69.328 34.64 69.744L32.72 72.288C31.68 71.776 30.784 71.104 30.032 70.272C29.28 69.424 28.664 68.456 28.184 67.368C27.72 66.28 27.368 65.096 27.128 63.816C26.904 62.536 26.792 61.208 26.792 59.832V56.592ZM36.44 54.864H39.632V77.16H36.44V54.864ZM51.4621 67.392H54.6541V70.776H51.4621V67.392ZM43.0381 65.472H63.1501V68.016H43.0381V65.472ZM45.2701 69.888H60.7261V77.136H57.5341V72.408H45.2701V69.888ZM45.6061 55.464H48.7501V57.408H57.4381V55.464H60.6061V64.032H45.6061V55.464ZM48.7501 59.808V61.536H57.4381V59.808H48.7501ZM67.4443 56.184H81.3643V58.704H67.4443V56.184ZM65.1403 65.64H85.2523V68.232H65.1403V65.64ZM73.4683 67.464H76.6843V77.136H73.4683V67.464ZM79.7323 56.184H82.8763V58.152C82.8763 58.952 82.8603 59.8 82.8283 60.696C82.8123 61.592 82.7483 62.576 82.6363 63.648C82.5243 64.704 82.3163 65.888 82.0123 67.2L78.8923 66.816C79.3083 64.976 79.5483 63.368 79.6123 61.992C79.6923 60.6 79.7323 59.32 79.7323 58.152V56.184ZM35.936 83.912H39.152V97.16H35.936V83.912ZM37.544 89.216H41.36V91.832H37.544V89.216ZM23.768 85.16H26.024V86.408C26.024 87.336 25.968 88.272 25.856 89.216C25.744 90.144 25.544 91.04 25.256 91.904C24.984 92.752 24.608 93.528 24.128 94.232C23.648 94.92 23.024 95.496 22.256 95.96L20.552 93.68C21.192 93.28 21.72 92.808 22.136 92.264C22.552 91.704 22.88 91.104 23.12 90.464C23.36 89.808 23.528 89.136 23.624 88.448C23.72 87.76 23.768 87.08 23.768 86.408V85.16ZM24.56 85.16H26.768V86.408C26.768 87.048 26.8 87.712 26.864 88.4C26.944 89.088 27.088 89.768 27.296 90.44C27.504 91.096 27.8 91.72 28.184 92.312C28.584 92.904 29.096 93.424 29.72 93.872L28.208 96.2C27.44 95.704 26.816 95.088 26.336 94.352C25.856 93.6 25.488 92.784 25.232 91.904C24.976 91.008 24.8 90.088 24.704 89.144C24.608 88.2 24.56 87.288 24.56 86.408V85.16ZM29.672 85.16H31.88V86.408C31.88 87.304 31.832 88.224 31.736 89.168C31.64 90.112 31.464 91.032 31.208 91.928C30.952 92.808 30.584 93.616 30.104 94.352C29.624 95.088 28.992 95.704 28.208 96.2L26.72 93.872C27.344 93.424 27.848 92.912 28.232 92.336C28.632 91.744 28.936 91.12 29.144 90.464C29.352 89.792 29.488 89.112 29.552 88.424C29.632 87.72 29.672 87.048 29.672 86.408V85.16ZM30.392 85.16H32.672V86.408C32.672 87.32 32.76 88.24 32.936 89.168C33.112 90.08 33.432 90.928 33.896 91.712C34.36 92.496 35.016 93.152 35.864 93.68L34.16 95.96C33.152 95.336 32.376 94.528 31.832 93.536C31.288 92.528 30.912 91.408 30.704 90.176C30.496 88.944 30.392 87.688 30.392 86.408V85.16ZM31.592 97.4C33.176 97.4 34.544 97.576 35.696 97.928C36.864 98.264 37.76 98.76 38.384 99.416C39.008 100.072 39.32 100.856 39.32 101.768C39.32 102.68 39.008 103.464 38.384 104.12C37.76 104.776 36.864 105.272 35.696 105.608C34.544 105.944 33.176 106.112 31.592 106.112C30.024 106.112 28.664 105.944 27.512 105.608C26.36 105.272 25.464 104.776 24.824 104.12C24.2 103.464 23.888 102.68 23.888 101.768C23.888 100.856 24.2 100.072 24.824 99.416C25.464 98.76 26.36 98.264 27.512 97.928C28.664 97.576 30.024 97.4 31.592 97.4ZM31.592 99.92C30.632 99.92 29.816 99.984 29.144 100.112C28.472 100.24 27.968 100.44 27.632 100.712C27.296 100.984 27.128 101.336 27.128 101.768C27.128 102.184 27.296 102.528 27.632 102.8C27.968 103.072 28.472 103.28 29.144 103.424C29.816 103.552 30.632 103.616 31.592 103.616C32.584 103.616 33.408 103.552 34.064 103.424C34.736 103.28 35.24 103.072 35.576 102.8C35.928 102.528 36.104 102.184 36.104 101.768C36.104 101.336 35.928 100.984 35.576 100.712C35.24 100.44 34.736 100.24 34.064 100.112C33.408 99.984 32.584 99.92 31.592 99.92ZM47.5741 91.328H50.7421V95.408H47.5741V91.328ZM55.3741 91.328H58.5661V95.408H55.3741V91.328ZM43.0381 94.448H63.1501V96.944H43.0381V94.448ZM53.0461 98.072C55.4461 98.072 57.3341 98.424 58.7101 99.128C60.0861 99.816 60.7741 100.808 60.7741 102.104C60.7741 103.384 60.0861 104.376 58.7101 105.08C57.3341 105.784 55.4461 106.136 53.0461 106.136C50.6461 106.136 48.7581 105.784 47.3821 105.08C46.0221 104.376 45.3421 103.384 45.3421 102.104C45.3421 100.808 46.0221 99.816 47.3821 99.128C48.7581 98.424 50.6461 98.072 53.0461 98.072ZM53.0461 100.472C52.0541 100.472 51.2221 100.536 50.5501 100.664C49.8941 100.776 49.3981 100.952 49.0621 101.192C48.7261 101.432 48.5581 101.736 48.5581 102.104C48.5581 102.472 48.7261 102.784 49.0621 103.04C49.3981 103.28 49.8941 103.456 50.5501 103.568C51.2221 103.68 52.0541 103.736 53.0461 103.736C54.0381 103.736 54.8621 103.68 55.5181 103.568C56.1901 103.456 56.6941 103.28 57.0301 103.04C57.3661 102.784 57.5341 102.472 57.5341 102.104C57.5341 101.736 57.3661 101.432 57.0301 101.192C56.6941 100.952 56.1901 100.776 55.5181 100.664C54.8621 100.536 54.0381 100.472 53.0461 100.472ZM53.0941 84.224C54.7421 84.224 56.1661 84.4 57.3661 84.752C58.5821 85.088 59.5181 85.576 60.1741 86.216C60.8301 86.856 61.1581 87.616 61.1581 88.496C61.1581 89.376 60.8301 90.136 60.1741 90.776C59.5181 91.4 58.5821 91.888 57.3661 92.24C56.1661 92.576 54.7421 92.744 53.0941 92.744C51.4781 92.744 50.0621 92.576 48.8461 92.24C47.6301 91.888 46.6941 91.4 46.0381 90.776C45.3821 90.136 45.0541 89.376 45.0541 88.496C45.0541 87.616 45.3821 86.856 46.0381 86.216C46.6941 85.576 47.6301 85.088 48.8461 84.752C50.0621 84.4 51.4781 84.224 53.0941 84.224ZM53.0941 86.648C52.1021 86.648 51.2461 86.72 50.5261 86.864C49.8061 86.992 49.2621 87.192 48.8941 87.464C48.5421 87.736 48.3661 88.08 48.3661 88.496C48.3661 88.896 48.5421 89.232 48.8941 89.504C49.2621 89.776 49.8061 89.984 50.5261 90.128C51.2461 90.256 52.1021 90.32 53.0941 90.32C54.1181 90.32 54.9821 90.256 55.6861 90.128C56.3901 89.984 56.9261 89.776 57.2941 89.504C57.6621 89.232 57.8461 88.896 57.8461 88.496C57.8461 88.08 57.6621 87.736 57.2941 87.464C56.9261 87.192 56.3901 86.992 55.6861 86.864C54.9821 86.72 54.1181 86.648 53.0941 86.648ZM72.0227 104.239C70.75 104.239 69.6165 104.02 68.6222 103.582C67.6335 103.139 66.8523 102.531 66.2784 101.759C65.7102 100.98 65.4176 100.082 65.4006 99.0653H69.1165C69.1392 99.4915 69.2784 99.8665 69.5341 100.19C69.7955 100.509 70.142 100.756 70.5739 100.932C71.0057 101.108 71.4915 101.196 72.0312 101.196C72.5938 101.196 73.0909 101.097 73.5227 100.898C73.9545 100.699 74.2926 100.423 74.5369 100.071C74.7813 99.7187 74.9034 99.3125 74.9034 98.8523C74.9034 98.3864 74.7727 97.9744 74.5114 97.6165C74.2557 97.2528 73.8864 96.9687 73.4034 96.7642C72.9261 96.5597 72.358 96.4574 71.6989 96.4574H70.071V93.7472H71.6989C72.2557 93.7472 72.7472 93.6506 73.1733 93.4574C73.6051 93.2642 73.9403 92.9972 74.179 92.6562C74.4176 92.3097 74.5369 91.9062 74.5369 91.446C74.5369 91.0085 74.4318 90.625 74.2216 90.2955C74.017 89.9602 73.7273 89.6989 73.3523 89.5114C72.983 89.3239 72.5511 89.2301 72.0568 89.2301C71.5568 89.2301 71.0994 89.321 70.6847 89.5028C70.2699 89.679 69.9375 89.9318 69.6875 90.2614C69.4375 90.5909 69.304 90.9773 69.2869 91.4205H65.75C65.767 90.4148 66.054 89.5284 66.6108 88.7614C67.1676 87.9943 67.9176 87.3949 68.8608 86.9631C69.8097 86.5256 70.8807 86.3068 72.0739 86.3068C73.2784 86.3068 74.3324 86.5256 75.2358 86.9631C76.1392 87.4006 76.8409 87.9915 77.3409 88.7358C77.8466 89.4744 78.0966 90.304 78.0909 91.2244C78.0966 92.2017 77.7926 93.017 77.179 93.6705C76.571 94.3239 75.7784 94.7386 74.8011 94.9148V95.0511C76.0852 95.2159 77.0625 95.6619 77.733 96.3892C78.4091 97.1108 78.7443 98.0142 78.7386 99.0994C78.7443 100.094 78.4574 100.977 77.8778 101.75C77.304 102.523 76.5114 103.131 75.5 103.574C74.4886 104.017 73.3295 104.239 72.0227 104.239ZM80.9846 94.352H101.073V96.872H80.9846V94.352ZM89.4326 91.016H92.6246V95.336H89.4326V91.016ZM83.4086 90.008H98.7926V92.504H83.4086V90.008ZM83.4086 84.848H98.6726V87.368H86.5766V91.592H83.4086V84.848ZM90.9446 97.976C93.3446 97.976 95.2326 98.336 96.6086 99.056C97.9846 99.76 98.6726 100.768 98.6726 102.08C98.6726 103.376 97.9846 104.376 96.6086 105.08C95.2326 105.8 93.3446 106.16 90.9446 106.16C88.5446 106.16 86.6566 105.8 85.2806 105.08C83.9206 104.376 83.2406 103.376 83.2406 102.08C83.2406 100.768 83.9206 99.76 85.2806 99.056C86.6566 98.336 88.5446 97.976 90.9446 97.976ZM90.9446 100.4C89.9526 100.4 89.1206 100.464 88.4486 100.592C87.7926 100.704 87.2966 100.888 86.9606 101.144C86.6246 101.384 86.4566 101.688 86.4566 102.056C86.4566 102.44 86.6246 102.76 86.9606 103.016C87.2966 103.256 87.7926 103.44 88.4486 103.568C89.1206 103.68 89.9526 103.736 90.9446 103.736C91.9366 103.736 92.7606 103.68 93.4166 103.568C94.0886 103.44 94.5926 103.256 94.9286 103.016C95.2646 102.76 95.4326 102.44 95.4326 102.056C95.4326 101.688 95.2646 101.384 94.9286 101.144C94.5926 100.888 94.0886 100.704 93.4166 100.592C92.7606 100.464 91.9366 100.4 90.9446 100.4Z" fill="white"/>
</svg>
