<svg width="198" height="176" viewBox="0 0 198 176" fill="none" xmlns="http://www.w3.org/2000/svg">
<path d="M112.956 15.1083L27.6334 1L23.9653 6.16838L20.2973 19.9973L5.14652 34.1056L6.26289 44.582L1 64.6968V80.7607L6.26289 89.2168L12.0813 106.86L20.2973 134.238L50.8657 157.357L112.956 175L145.749 111.727L178.993 80.7607L197 50.2797L145.749 55.1469L112.956 15.1083Z" fill="#020715" fill-opacity="0.65" stroke="#044778" stroke-opacity="0.2"/>
<path d="M48.192 59.848H54.048V62.416H48.192V59.848ZM42.144 54.592H44.712V57.832C44.712 59.224 44.592 60.576 44.352 61.888C44.112 63.2 43.744 64.424 43.248 65.56C42.752 66.696 42.12 67.696 41.352 68.56C40.6 69.424 39.704 70.12 38.664 70.648L36.672 68.104C37.616 67.656 38.424 67.072 39.096 66.352C39.784 65.632 40.352 64.816 40.8 63.904C41.264 62.976 41.6 62 41.808 60.976C42.032 59.936 42.144 58.888 42.144 57.832V54.592ZM42.792 54.592H45.336V57.832C45.336 58.872 45.44 59.904 45.648 60.928C45.856 61.936 46.168 62.88 46.584 63.76C47.016 64.64 47.568 65.424 48.24 66.112C48.912 66.784 49.712 67.328 50.64 67.744L48.72 70.288C47.68 69.776 46.784 69.104 46.032 68.272C45.28 67.424 44.664 66.456 44.184 65.368C43.72 64.28 43.368 63.096 43.128 61.816C42.904 60.536 42.792 59.208 42.792 57.832V54.592ZM52.44 52.864H55.632V75.16H52.44V52.864ZM67.4621 65.392H70.6541V68.776H67.4621V65.392ZM59.0381 63.472H79.1501V66.016H59.0381V63.472ZM61.2701 67.888H76.7261V75.136H73.5341V70.408H61.2701V67.888ZM61.6061 53.464H64.7501V55.408H73.4381V53.464H76.6061V62.032H61.6061V53.464ZM64.7501 57.808V59.536H73.4381V57.808H64.7501ZM83.4443 54.184H97.3643V56.704H83.4443V54.184ZM81.1403 63.64H101.252V66.232H81.1403V63.64ZM89.4683 65.464H92.6843V75.136H89.4683V65.464ZM95.7323 54.184H98.8763V56.152C98.8763 56.952 98.8603 57.8 98.8283 58.696C98.8123 59.592 98.7483 60.576 98.6363 61.648C98.5243 62.704 98.3163 63.888 98.0123 65.2L94.8923 64.816C95.3083 62.976 95.5483 61.368 95.6123 59.992C95.6923 58.6 95.7323 57.32 95.7323 56.152V54.184ZM51.936 81.912H55.152V95.16H51.936V81.912ZM53.544 87.216H57.36V89.832H53.544V87.216ZM39.768 83.16H42.024V84.408C42.024 85.336 41.968 86.272 41.856 87.216C41.744 88.144 41.544 89.04 41.256 89.904C40.984 90.752 40.608 91.528 40.128 92.232C39.648 92.92 39.024 93.496 38.256 93.96L36.552 91.68C37.192 91.28 37.72 90.808 38.136 90.264C38.552 89.704 38.88 89.104 39.12 88.464C39.36 87.808 39.528 87.136 39.624 86.448C39.72 85.76 39.768 85.08 39.768 84.408V83.16ZM40.56 83.16H42.768V84.408C42.768 85.048 42.8 85.712 42.864 86.4C42.944 87.088 43.088 87.768 43.296 88.44C43.504 89.096 43.8 89.72 44.184 90.312C44.584 90.904 45.096 91.424 45.72 91.872L44.208 94.2C43.44 93.704 42.816 93.088 42.336 92.352C41.856 91.6 41.488 90.784 41.232 89.904C40.976 89.008 40.8 88.088 40.704 87.144C40.608 86.2 40.56 85.288 40.56 84.408V83.16ZM45.672 83.16H47.88V84.408C47.88 85.304 47.832 86.224 47.736 87.168C47.64 88.112 47.464 89.032 47.208 89.928C46.952 90.808 46.584 91.616 46.104 92.352C45.624 93.088 44.992 93.704 44.208 94.2L42.72 91.872C43.344 91.424 43.848 90.912 44.232 90.336C44.632 89.744 44.936 89.12 45.144 88.464C45.352 87.792 45.488 87.112 45.552 86.424C45.632 85.72 45.672 85.048 45.672 84.408V83.16ZM46.392 83.16H48.672V84.408C48.672 85.32 48.76 86.24 48.936 87.168C49.112 88.08 49.432 88.928 49.896 89.712C50.36 90.496 51.016 91.152 51.864 91.68L50.16 93.96C49.152 93.336 48.376 92.528 47.832 91.536C47.288 90.528 46.912 89.408 46.704 88.176C46.496 86.944 46.392 85.688 46.392 84.408V83.16ZM47.592 95.4C49.176 95.4 50.544 95.576 51.696 95.928C52.864 96.264 53.76 96.76 54.384 97.416C55.008 98.072 55.32 98.856 55.32 99.768C55.32 100.68 55.008 101.464 54.384 102.12C53.76 102.776 52.864 103.272 51.696 103.608C50.544 103.944 49.176 104.112 47.592 104.112C46.024 104.112 44.664 103.944 43.512 103.608C42.36 103.272 41.464 102.776 40.824 102.12C40.2 101.464 39.888 100.68 39.888 99.768C39.888 98.856 40.2 98.072 40.824 97.416C41.464 96.76 42.36 96.264 43.512 95.928C44.664 95.576 46.024 95.4 47.592 95.4ZM47.592 97.92C46.632 97.92 45.816 97.984 45.144 98.112C44.472 98.24 43.968 98.44 43.632 98.712C43.296 98.984 43.128 99.336 43.128 99.768C43.128 100.184 43.296 100.528 43.632 100.8C43.968 101.072 44.472 101.28 45.144 101.424C45.816 101.552 46.632 101.616 47.592 101.616C48.584 101.616 49.408 101.552 50.064 101.424C50.736 101.28 51.24 101.072 51.576 100.8C51.928 100.528 52.104 100.184 52.104 99.768C52.104 99.336 51.928 98.984 51.576 98.712C51.24 98.44 50.736 98.24 50.064 98.112C49.408 97.984 48.584 97.92 47.592 97.92ZM63.5741 89.328H66.7421V93.408H63.5741V89.328ZM71.3741 89.328H74.5661V93.408H71.3741V89.328ZM59.0381 92.448H79.1501V94.944H59.0381V92.448ZM69.0461 96.072C71.4461 96.072 73.3341 96.424 74.7101 97.128C76.0861 97.816 76.7741 98.808 76.7741 100.104C76.7741 101.384 76.0861 102.376 74.7101 103.08C73.3341 103.784 71.4461 104.136 69.0461 104.136C66.6461 104.136 64.7581 103.784 63.3821 103.08C62.0221 102.376 61.3421 101.384 61.3421 100.104C61.3421 98.808 62.0221 97.816 63.3821 97.128C64.7581 96.424 66.6461 96.072 69.0461 96.072ZM69.0461 98.472C68.0541 98.472 67.2221 98.536 66.5501 98.664C65.8941 98.776 65.3981 98.952 65.0621 99.192C64.7261 99.432 64.5581 99.736 64.5581 100.104C64.5581 100.472 64.7261 100.784 65.0621 101.04C65.3981 101.28 65.8941 101.456 66.5501 101.568C67.2221 101.68 68.0541 101.736 69.0461 101.736C70.0381 101.736 70.8621 101.68 71.5181 101.568C72.1901 101.456 72.6941 101.28 73.0301 101.04C73.3661 100.784 73.5341 100.472 73.5341 100.104C73.5341 99.736 73.3661 99.432 73.0301 99.192C72.6941 98.952 72.1901 98.776 71.5181 98.664C70.8621 98.536 70.0381 98.472 69.0461 98.472ZM69.0941 82.224C70.7421 82.224 72.1661 82.4 73.3661 82.752C74.5821 83.088 75.5181 83.576 76.1741 84.216C76.8301 84.856 77.1581 85.616 77.1581 86.496C77.1581 87.376 76.8301 88.136 76.1741 88.776C75.5181 89.4 74.5821 89.888 73.3661 90.24C72.1661 90.576 70.7421 90.744 69.0941 90.744C67.4781 90.744 66.0621 90.576 64.8461 90.24C63.6301 89.888 62.6941 89.4 62.0381 88.776C61.3821 88.136 61.0541 87.376 61.0541 86.496C61.0541 85.616 61.3821 84.856 62.0381 84.216C62.6941 83.576 63.6301 83.088 64.8461 82.752C66.0621 82.4 67.4781 82.224 69.0941 82.224ZM69.0941 84.648C68.1021 84.648 67.2461 84.72 66.5261 84.864C65.8061 84.992 65.2621 85.192 64.8941 85.464C64.5421 85.736 64.3661 86.08 64.3661 86.496C64.3661 86.896 64.5421 87.232 64.8941 87.504C65.2621 87.776 65.8061 87.984 66.5261 88.128C67.2461 88.256 68.1021 88.32 69.0941 88.32C70.1181 88.32 70.9821 88.256 71.6861 88.128C72.3901 87.984 72.9261 87.776 73.2941 87.504C73.6621 87.232 73.8461 86.896 73.8461 86.496C73.8461 86.08 73.6621 85.736 73.2941 85.464C72.9261 85.192 72.3901 84.992 71.6861 84.864C70.9821 84.72 70.1181 84.648 69.0941 84.648ZM81.571 102V99.3409L87.7841 93.5881C88.3125 93.0767 88.7557 92.6165 89.1136 92.2074C89.4773 91.7983 89.7528 91.3977 89.9403 91.0057C90.1278 90.608 90.2216 90.179 90.2216 89.7188C90.2216 89.2074 90.1051 88.767 89.8722 88.3977C89.6392 88.0227 89.321 87.7358 88.9176 87.5369C88.5142 87.3324 88.0568 87.2301 87.5455 87.2301C87.0114 87.2301 86.5455 87.3381 86.1477 87.554C85.75 87.7699 85.4432 88.0795 85.2273 88.483C85.0114 88.8864 84.9034 89.3665 84.9034 89.9233H81.4006C81.4006 88.7812 81.6591 87.7898 82.1761 86.9489C82.6932 86.108 83.4176 85.4574 84.3494 84.9972C85.2813 84.5369 86.3551 84.3068 87.571 84.3068C88.821 84.3068 89.9091 84.5284 90.8352 84.9716C91.767 85.4091 92.4915 86.017 93.0085 86.7955C93.5256 87.5739 93.7841 88.4659 93.7841 89.4716C93.7841 90.1307 93.6534 90.7812 93.392 91.4233C93.1364 92.0653 92.679 92.7784 92.0199 93.5625C91.3608 94.3409 90.4318 95.2756 89.233 96.3665L86.6847 98.8636V98.983H94.0142V102H81.571ZM96.2814 92.352H116.369V94.872H96.2814V92.352ZM104.729 89.016H107.921V93.336H104.729V89.016ZM98.7054 88.008H114.089V90.504H98.7054V88.008ZM98.7054 82.848H113.969V85.368H101.873V89.592H98.7054V82.848ZM106.241 95.976C108.641 95.976 110.529 96.336 111.905 97.056C113.281 97.76 113.969 98.768 113.969 100.08C113.969 101.376 113.281 102.376 111.905 103.08C110.529 103.8 108.641 104.16 106.241 104.16C103.841 104.16 101.953 103.8 100.577 103.08C99.2174 102.376 98.5374 101.376 98.5374 100.08C98.5374 98.768 99.2174 97.76 100.577 97.056C101.953 96.336 103.841 95.976 106.241 95.976ZM106.241 98.4C105.249 98.4 104.417 98.464 103.745 98.592C103.089 98.704 102.593 98.888 102.257 99.144C101.921 99.384 101.753 99.688 101.753 100.056C101.753 100.44 101.921 100.76 102.257 101.016C102.593 101.256 103.089 101.44 103.745 101.568C104.417 101.68 105.249 101.736 106.241 101.736C107.233 101.736 108.057 101.68 108.713 101.568C109.385 101.44 109.889 101.256 110.225 101.016C110.561 100.76 110.729 100.44 110.729 100.056C110.729 99.688 110.561 99.384 110.225 99.144C109.889 98.888 109.385 98.704 108.713 98.592C108.057 98.464 107.233 98.4 106.241 98.4Z" fill="white"/>
</svg>
