<svg width="539" height="357" viewBox="0 0 539 357" fill="none" xmlns="http://www.w3.org/2000/svg">
<path d="M332.737 356L152.355 277.38L111.579 247.746L1 255.608V232.627L43.1583 213.879L52.1429 170.94L118.49 160.659L189.676 101.392L281.595 54.2198L413.598 22.167L492.386 1L538 54.2198L528.324 132.84L486.166 225.37L428.803 241.698L407.378 297.337L332.737 356Z" fill="#020715" fill-opacity="0.65" stroke="#044778" stroke-opacity="0.2"/>
<path d="M241.008 171.352H261.096V173.872H241.008V171.352ZM249.456 168.016H252.648V172.336H249.456V168.016ZM243.432 167.008H258.816V169.504H243.432V167.008ZM243.432 161.848H258.696V164.368H246.6V168.592H243.432V161.848ZM250.968 174.976C253.368 174.976 255.256 175.336 256.632 176.056C258.008 176.76 258.696 177.768 258.696 179.08C258.696 180.376 258.008 181.376 256.632 182.08C255.256 182.8 253.368 183.16 250.968 183.16C248.568 183.16 246.68 182.8 245.304 182.08C243.944 181.376 243.264 180.376 243.264 179.08C243.264 177.768 243.944 176.76 245.304 176.056C246.68 175.336 248.568 174.976 250.968 174.976ZM250.968 177.4C249.976 177.4 249.144 177.464 248.472 177.592C247.816 177.704 247.32 177.888 246.984 178.144C246.648 178.384 246.48 178.688 246.48 179.056C246.48 179.44 246.648 179.76 246.984 180.016C247.32 180.256 247.816 180.44 248.472 180.568C249.144 180.68 249.976 180.736 250.968 180.736C251.96 180.736 252.784 180.68 253.44 180.568C254.112 180.44 254.616 180.256 254.952 180.016C255.288 179.76 255.456 179.44 255.456 179.056C255.456 178.688 255.288 178.384 254.952 178.144C254.616 177.888 254.112 177.704 253.44 177.592C252.784 177.464 251.96 177.4 250.968 177.4ZM277.342 160.888H280.534V173.416H277.342V160.888ZM279.67 165.568H283.486V168.184H279.67V165.568ZM266.086 174.424H280.534V182.896H266.086V174.424ZM277.438 176.944H269.23V180.376H277.438V176.944ZM263.95 161.944H267.142V171.04H263.95V161.944ZM263.95 169.672H265.798C267.318 169.672 268.894 169.616 270.526 169.504C272.174 169.376 273.87 169.144 275.614 168.808L275.974 171.352C274.182 171.72 272.43 171.976 270.718 172.12C269.022 172.248 267.382 172.312 265.798 172.312H263.95V169.672ZM287.444 162.184H301.364V164.704H287.444V162.184ZM285.14 171.64H305.252V174.232H285.14V171.64ZM293.468 173.464H296.684V183.136H293.468V173.464ZM299.732 162.184H302.876V164.152C302.876 164.952 302.86 165.8 302.828 166.696C302.812 167.592 302.748 168.576 302.636 169.648C302.524 170.704 302.316 171.888 302.012 173.2L298.892 172.816C299.308 170.976 299.548 169.368 299.612 167.992C299.692 166.6 299.732 165.32 299.732 164.152V162.184ZM246.768 201.312H249.96V206.16H246.768V201.312ZM256.488 189.888H259.68V206.736H256.488V189.888ZM243.672 209.184H260.184V211.752H243.672V209.184ZM243.672 205.128H246.864V209.88H243.672V205.128ZM241.296 202.272L240.888 199.728C242.248 199.712 243.728 199.696 245.328 199.68C246.928 199.648 248.56 199.584 250.224 199.488C251.888 199.392 253.488 199.248 255.024 199.056L255.24 201.336C253.656 201.608 252.04 201.816 250.392 201.96C248.76 202.088 247.168 202.168 245.616 202.2C244.064 202.232 242.624 202.256 241.296 202.272ZM252.312 202.8H257.208V204.984H252.312V202.8ZM248.04 190.656C249.128 190.656 250.088 190.824 250.92 191.16C251.752 191.496 252.4 191.96 252.864 192.552C253.344 193.144 253.584 193.84 253.584 194.64C253.584 195.424 253.344 196.12 252.864 196.728C252.4 197.32 251.752 197.776 250.92 198.096C250.088 198.416 249.128 198.576 248.04 198.576C246.952 198.576 245.984 198.416 245.136 198.096C244.304 197.776 243.656 197.32 243.192 196.728C242.728 196.12 242.496 195.424 242.496 194.64C242.496 193.84 242.728 193.144 243.192 192.552C243.656 191.96 244.304 191.496 245.136 191.16C245.984 190.824 246.952 190.656 248.04 190.656ZM248.04 192.984C247.304 192.984 246.696 193.12 246.216 193.392C245.752 193.664 245.52 194.08 245.52 194.64C245.52 195.168 245.752 195.576 246.216 195.864C246.696 196.136 247.304 196.272 248.04 196.272C248.792 196.272 249.392 196.136 249.84 195.864C250.304 195.576 250.536 195.168 250.536 194.64C250.536 194.272 250.432 193.968 250.224 193.728C250.016 193.488 249.728 193.304 249.36 193.176C248.992 193.048 248.552 192.984 248.04 192.984ZM268.222 191.064H270.862V193.032C270.862 194.52 270.63 195.92 270.166 197.232C269.718 198.544 269.03 199.688 268.102 200.664C267.174 201.64 265.982 202.376 264.526 202.872L262.846 200.304C264.126 199.904 265.158 199.328 265.942 198.576C266.726 197.824 267.302 196.968 267.67 196.008C268.038 195.048 268.222 194.056 268.222 193.032V191.064ZM268.87 191.064H271.462V192.888C271.462 193.864 271.63 194.808 271.966 195.72C272.302 196.616 272.838 197.416 273.574 198.12C274.31 198.808 275.262 199.344 276.43 199.728L274.774 202.224C273.414 201.744 272.294 201.048 271.414 200.136C270.55 199.224 269.91 198.152 269.494 196.92C269.078 195.672 268.87 194.328 268.87 192.888V191.064ZM278.446 189.912H281.662V202.92H278.446V189.912ZM274.126 203.496C276.478 203.496 278.334 203.88 279.694 204.648C281.054 205.4 281.734 206.448 281.734 207.792C281.734 209.168 281.054 210.232 279.694 210.984C278.334 211.752 276.478 212.136 274.126 212.136C271.774 212.136 269.918 211.752 268.558 210.984C267.198 210.232 266.518 209.168 266.518 207.792C266.518 206.448 267.198 205.4 268.558 204.648C269.918 203.88 271.774 203.496 274.126 203.496ZM274.126 205.968C273.166 205.968 272.358 206.032 271.702 206.16C271.046 206.288 270.542 206.496 270.19 206.784C269.854 207.056 269.686 207.392 269.686 207.792C269.686 208.208 269.854 208.56 270.19 208.848C270.542 209.12 271.046 209.328 271.702 209.472C272.358 209.6 273.166 209.664 274.126 209.664C275.086 209.664 275.894 209.6 276.55 209.472C277.206 209.328 277.702 209.12 278.038 208.848C278.374 208.56 278.542 208.208 278.542 207.792C278.542 207.392 278.374 207.056 278.038 206.784C277.702 206.496 277.206 206.288 276.55 206.16C275.894 206.032 275.086 205.968 274.126 205.968ZM274.39 193.944H278.926V196.536H274.39V193.944ZM293.165 192.545V210H289.474V196.048H289.372L285.375 198.554V195.281L289.696 192.545H293.165ZM296.906 200.352H316.994V202.872H296.906V200.352ZM305.354 197.016H308.546V201.336H305.354V197.016ZM299.33 196.008H314.714V198.504H299.33V196.008ZM299.33 190.848H314.594V193.368H302.498V197.592H299.33V190.848ZM306.866 203.976C309.266 203.976 311.154 204.336 312.53 205.056C313.906 205.76 314.594 206.768 314.594 208.08C314.594 209.376 313.906 210.376 312.53 211.08C311.154 211.8 309.266 212.16 306.866 212.16C304.466 212.16 302.578 211.8 301.202 211.08C299.842 210.376 299.162 209.376 299.162 208.08C299.162 206.768 299.842 205.76 301.202 205.056C302.578 204.336 304.466 203.976 306.866 203.976ZM306.866 206.4C305.874 206.4 305.042 206.464 304.37 206.592C303.714 206.704 303.218 206.888 302.882 207.144C302.546 207.384 302.378 207.688 302.378 208.056C302.378 208.44 302.546 208.76 302.882 209.016C303.218 209.256 303.714 209.44 304.37 209.568C305.042 209.68 305.874 209.736 306.866 209.736C307.858 209.736 308.682 209.68 309.338 209.568C310.01 209.44 310.514 209.256 310.85 209.016C311.186 208.76 311.354 208.44 311.354 208.056C311.354 207.688 311.186 207.384 310.85 207.144C310.514 206.888 310.01 206.704 309.338 206.592C308.682 206.464 307.858 206.4 306.866 206.4Z" fill="white"/>
</svg>
