<svg width="449" height="283" viewBox="0 0 449 283" fill="none" xmlns="http://www.w3.org/2000/svg">
<path d="M41.7951 195.474L8.77805 217.453L1 235.677C2.3228 244.58 5.12713 263.026 5.76207 265.585C6.39702 268.145 19.3604 277.595 25.7628 282L98.305 279.635L134.338 265.585L155.45 241.798L211.166 231.921L282.121 206.464L371.172 180.729L373.87 150.403L371.172 116.739L391.966 96.1505C404.771 89.2878 430.92 74.8112 433.079 71.8064C435.238 68.8017 443.926 53.1195 448 45.654C443.026 37.1683 432.539 19.8632 430.38 18.5277C428.222 17.1923 400.485 6.28614 386.887 1L327.996 16.0238L268.47 45.654L224.024 80.9876L199.737 86.1347L177.832 66.6594L155.45 53.1658L150.053 61.0951L114.655 106.445L73.2248 144.56L41.7951 195.474Z" fill="#020715" fill-opacity="0.65" stroke="#044778" stroke-opacity="0.2"/>
<path d="M151.008 139.352H171.096V141.872H151.008V139.352ZM159.456 136.016H162.648V140.336H159.456V136.016ZM153.432 135.008H168.816V137.504H153.432V135.008ZM153.432 129.848H168.696V132.368H156.6V136.592H153.432V129.848ZM160.968 142.976C163.368 142.976 165.256 143.336 166.632 144.056C168.008 144.76 168.696 145.768 168.696 147.08C168.696 148.376 168.008 149.376 166.632 150.08C165.256 150.8 163.368 151.16 160.968 151.16C158.568 151.16 156.68 150.8 155.304 150.08C153.944 149.376 153.264 148.376 153.264 147.08C153.264 145.768 153.944 144.76 155.304 144.056C156.68 143.336 158.568 142.976 160.968 142.976ZM160.968 145.4C159.976 145.4 159.144 145.464 158.472 145.592C157.816 145.704 157.32 145.888 156.984 146.144C156.648 146.384 156.48 146.688 156.48 147.056C156.48 147.44 156.648 147.76 156.984 148.016C157.32 148.256 157.816 148.44 158.472 148.568C159.144 148.68 159.976 148.736 160.968 148.736C161.96 148.736 162.784 148.68 163.44 148.568C164.112 148.44 164.616 148.256 164.952 148.016C165.288 147.76 165.456 147.44 165.456 147.056C165.456 146.688 165.288 146.384 164.952 146.144C164.616 145.888 164.112 145.704 163.44 145.592C162.784 145.464 161.96 145.4 160.968 145.4ZM187.342 128.888H190.534V141.416H187.342V128.888ZM189.67 133.568H193.486V136.184H189.67V133.568ZM176.086 142.424H190.534V150.896H176.086V142.424ZM187.438 144.944H179.23V148.376H187.438V144.944ZM173.95 129.944H177.142V139.04H173.95V129.944ZM173.95 137.672H175.798C177.318 137.672 178.894 137.616 180.526 137.504C182.174 137.376 183.87 137.144 185.614 136.808L185.974 139.352C184.182 139.72 182.43 139.976 180.718 140.12C179.022 140.248 177.382 140.312 175.798 140.312H173.95V137.672ZM197.444 130.184H211.364V132.704H197.444V130.184ZM195.14 139.64H215.252V142.232H195.14V139.64ZM203.468 141.464H206.684V151.136H203.468V141.464ZM209.732 130.184H212.876V132.152C212.876 132.952 212.86 133.8 212.828 134.696C212.812 135.592 212.748 136.576 212.636 137.648C212.524 138.704 212.316 139.888 212.012 141.2L208.892 140.816C209.308 138.976 209.548 137.368 209.612 135.992C209.692 134.6 209.732 133.32 209.732 132.152V130.184ZM166.248 157.912H169.44V174.112H166.248V157.912ZM154.632 177.184H170.016V179.752H154.632V177.184ZM154.632 172.552H157.824V178.504H154.632V172.552ZM156.192 159.136H158.832V161.296C158.832 162.736 158.6 164.112 158.136 165.424C157.688 166.736 157 167.888 156.072 168.88C155.144 169.872 153.96 170.624 152.52 171.136L150.888 168.592C152.136 168.16 153.144 167.56 153.912 166.792C154.696 166.024 155.272 165.16 155.64 164.2C156.008 163.24 156.192 162.272 156.192 161.296V159.136ZM156.84 159.136H159.432V161.296C159.432 162.016 159.528 162.728 159.72 163.432C159.928 164.12 160.24 164.776 160.656 165.4C161.072 166.008 161.608 166.56 162.264 167.056C162.92 167.552 163.696 167.944 164.592 168.232L162.984 170.752C161.576 170.288 160.416 169.584 159.504 168.64C158.592 167.696 157.92 166.592 157.488 165.328C157.056 164.064 156.84 162.72 156.84 161.296V159.136ZM187.342 157.912H190.534V174.064H187.342V157.912ZM189.646 164.248H193.486V166.888H189.646V164.248ZM176.206 177.184H191.326V179.752H176.206V177.184ZM176.206 172.384H179.422V178.336H176.206V172.384ZM179.23 159.328C180.366 159.328 181.39 159.568 182.302 160.048C183.214 160.528 183.934 161.192 184.462 162.04C185.006 162.888 185.278 163.864 185.278 164.968C185.278 166.056 185.006 167.032 184.462 167.896C183.934 168.744 183.214 169.416 182.302 169.912C181.39 170.392 180.366 170.632 179.23 170.632C178.094 170.632 177.07 170.392 176.158 169.912C175.246 169.416 174.526 168.744 173.998 167.896C173.47 167.032 173.206 166.056 173.206 164.968C173.206 163.864 173.47 162.888 173.998 162.04C174.526 161.192 175.246 160.528 176.158 160.048C177.07 159.568 178.094 159.328 179.23 159.328ZM179.23 162.088C178.686 162.088 178.19 162.208 177.742 162.448C177.31 162.672 176.966 163 176.71 163.432C176.454 163.848 176.326 164.36 176.326 164.968C176.326 165.576 176.454 166.096 176.71 166.528C176.966 166.944 177.31 167.272 177.742 167.512C178.19 167.736 178.686 167.848 179.23 167.848C179.79 167.848 180.286 167.736 180.718 167.512C181.166 167.272 181.518 166.944 181.774 166.528C182.03 166.096 182.158 165.576 182.158 164.968C182.158 164.36 182.03 163.848 181.774 163.432C181.518 163 181.166 162.672 180.718 162.448C180.286 162.208 179.79 162.088 179.23 162.088ZM195.164 168.352H215.252V170.872H195.164V168.352ZM203.612 165.016H206.804V169.336H203.612V165.016ZM197.588 164.008H212.972V166.504H197.588V164.008ZM197.588 158.848H212.852V161.368H200.756V165.592H197.588V158.848ZM205.124 171.976C207.524 171.976 209.412 172.336 210.788 173.056C212.164 173.76 212.852 174.768 212.852 176.08C212.852 177.376 212.164 178.376 210.788 179.08C209.412 179.8 207.524 180.16 205.124 180.16C202.724 180.16 200.836 179.8 199.46 179.08C198.1 178.376 197.42 177.376 197.42 176.08C197.42 174.768 198.1 173.76 199.46 173.056C200.836 172.336 202.724 171.976 205.124 171.976ZM205.124 174.4C204.132 174.4 203.3 174.464 202.628 174.592C201.972 174.704 201.476 174.888 201.14 175.144C200.804 175.384 200.636 175.688 200.636 176.056C200.636 176.44 200.804 176.76 201.14 177.016C201.476 177.256 201.972 177.44 202.628 177.568C203.3 177.68 204.132 177.736 205.124 177.736C206.116 177.736 206.94 177.68 207.596 177.568C208.268 177.44 208.772 177.256 209.108 177.016C209.444 176.76 209.612 176.44 209.612 176.056C209.612 175.688 209.444 175.384 209.108 175.144C208.772 174.888 208.268 174.704 207.596 174.592C206.94 174.464 206.116 174.4 205.124 174.4Z" fill="white"/>
</svg>
