<svg width="152" height="127" viewBox="0 0 152 127" fill="none" xmlns="http://www.w3.org/2000/svg">
<path d="M24.6158 82.7073L8.64039 126H142L137.138 1L1 5.87805V41.8537L24.6158 82.7073Z" fill="#020715" fill-opacity="0.65" stroke="#044778" stroke-opacity="0.2"/>
<path d="M32.008 45.352H52.096V47.872H32.008V45.352ZM40.456 42.016H43.648V46.336H40.456V42.016ZM34.432 41.008H49.816V43.504H34.432V41.008ZM34.432 35.848H49.696V38.368H37.6V42.592H34.432V35.848ZM41.968 48.976C44.368 48.976 46.256 49.336 47.632 50.056C49.008 50.76 49.696 51.768 49.696 53.08C49.696 54.376 49.008 55.376 47.632 56.08C46.256 56.8 44.368 57.16 41.968 57.16C39.568 57.16 37.68 56.8 36.304 56.08C34.944 55.376 34.264 54.376 34.264 53.08C34.264 51.768 34.944 50.76 36.304 50.056C37.68 49.336 39.568 48.976 41.968 48.976ZM41.968 51.4C40.976 51.4 40.144 51.464 39.472 51.592C38.816 51.704 38.32 51.888 37.984 52.144C37.648 52.384 37.48 52.688 37.48 53.056C37.48 53.44 37.648 53.76 37.984 54.016C38.32 54.256 38.816 54.44 39.472 54.568C40.144 54.68 40.976 54.736 41.968 54.736C42.96 54.736 43.784 54.68 44.44 54.568C45.112 54.44 45.616 54.256 45.952 54.016C46.288 53.76 46.456 53.44 46.456 53.056C46.456 52.688 46.288 52.384 45.952 52.144C45.616 51.888 45.112 51.704 44.44 51.592C43.784 51.464 42.96 51.4 41.968 51.4ZM68.3421 34.888H71.5341V47.416H68.3421V34.888ZM70.6701 39.568H74.4861V42.184H70.6701V39.568ZM57.0861 48.424H71.5341V56.896H57.0861V48.424ZM68.4381 50.944H60.2301V54.376H68.4381V50.944ZM54.9501 35.944H58.1421V45.04H54.9501V35.944ZM54.9501 43.672H56.7981C58.3181 43.672 59.8941 43.616 61.5261 43.504C63.1741 43.376 64.8701 43.144 66.6141 42.808L66.9741 45.352C65.1821 45.72 63.4301 45.976 61.7181 46.12C60.0221 46.248 58.3821 46.312 56.7981 46.312H54.9501V43.672ZM78.4443 36.184H92.3643V38.704H78.4443V36.184ZM76.1403 45.64H96.2523V48.232H76.1403V45.64ZM84.4683 47.464H87.6843V57.136H84.4683V47.464ZM90.7323 36.184H93.8763V38.152C93.8763 38.952 93.8603 39.8 93.8283 40.696C93.8123 41.592 93.7483 42.576 93.6363 43.648C93.5243 44.704 93.3163 45.888 93.0123 47.2L89.8923 46.816C90.3083 44.976 90.5483 43.368 90.6123 41.992C90.6923 40.6 90.7323 39.32 90.7323 38.152V36.184ZM37.768 75.312H40.96V80.16H37.768V75.312ZM47.488 63.888H50.68V80.736H47.488V63.888ZM34.672 83.184H51.184V85.752H34.672V83.184ZM34.672 79.128H37.864V83.88H34.672V79.128ZM32.296 76.272L31.888 73.728C33.248 73.712 34.728 73.696 36.328 73.68C37.928 73.648 39.56 73.584 41.224 73.488C42.888 73.392 44.488 73.248 46.024 73.056L46.24 75.336C44.656 75.608 43.04 75.816 41.392 75.96C39.76 76.088 38.168 76.168 36.616 76.2C35.064 76.232 33.624 76.256 32.296 76.272ZM43.312 76.8H48.208V78.984H43.312V76.8ZM39.04 64.656C40.128 64.656 41.088 64.824 41.92 65.16C42.752 65.496 43.4 65.96 43.864 66.552C44.344 67.144 44.584 67.84 44.584 68.64C44.584 69.424 44.344 70.12 43.864 70.728C43.4 71.32 42.752 71.776 41.92 72.096C41.088 72.416 40.128 72.576 39.04 72.576C37.952 72.576 36.984 72.416 36.136 72.096C35.304 71.776 34.656 71.32 34.192 70.728C33.728 70.12 33.496 69.424 33.496 68.64C33.496 67.84 33.728 67.144 34.192 66.552C34.656 65.96 35.304 65.496 36.136 65.16C36.984 64.824 37.952 64.656 39.04 64.656ZM39.04 66.984C38.304 66.984 37.696 67.12 37.216 67.392C36.752 67.664 36.52 68.08 36.52 68.64C36.52 69.168 36.752 69.576 37.216 69.864C37.696 70.136 38.304 70.272 39.04 70.272C39.792 70.272 40.392 70.136 40.84 69.864C41.304 69.576 41.536 69.168 41.536 68.64C41.536 68.272 41.432 67.968 41.224 67.728C41.016 67.488 40.728 67.304 40.36 67.176C39.992 67.048 39.552 66.984 39.04 66.984ZM59.2221 65.064H61.8621V67.032C61.8621 68.52 61.6301 69.92 61.1661 71.232C60.7181 72.544 60.0301 73.688 59.1021 74.664C58.1741 75.64 56.9821 76.376 55.5261 76.872L53.8461 74.304C55.1261 73.904 56.1581 73.328 56.9421 72.576C57.7261 71.824 58.3021 70.968 58.6701 70.008C59.0381 69.048 59.2221 68.056 59.2221 67.032V65.064ZM59.8701 65.064H62.4621V66.888C62.4621 67.864 62.6301 68.808 62.9661 69.72C63.3021 70.616 63.8381 71.416 64.5741 72.12C65.3101 72.808 66.2621 73.344 67.4301 73.728L65.7741 76.224C64.4141 75.744 63.2941 75.048 62.4141 74.136C61.5501 73.224 60.9101 72.152 60.4941 70.92C60.0781 69.672 59.8701 68.328 59.8701 66.888V65.064ZM69.4461 63.912H72.6621V76.92H69.4461V63.912ZM65.1261 77.496C67.4781 77.496 69.3341 77.88 70.6941 78.648C72.0541 79.4 72.7341 80.448 72.7341 81.792C72.7341 83.168 72.0541 84.232 70.6941 84.984C69.3341 85.752 67.4781 86.136 65.1261 86.136C62.7741 86.136 60.9181 85.752 59.5581 84.984C58.1981 84.232 57.5181 83.168 57.5181 81.792C57.5181 80.448 58.1981 79.4 59.5581 78.648C60.9181 77.88 62.7741 77.496 65.1261 77.496ZM65.1261 79.968C64.1661 79.968 63.3581 80.032 62.7021 80.16C62.0461 80.288 61.5421 80.496 61.1901 80.784C60.8541 81.056 60.6861 81.392 60.6861 81.792C60.6861 82.208 60.8541 82.56 61.1901 82.848C61.5421 83.12 62.0461 83.328 62.7021 83.472C63.3581 83.6 64.1661 83.664 65.1261 83.664C66.0861 83.664 66.8941 83.6 67.5501 83.472C68.2061 83.328 68.7021 83.12 69.0381 82.848C69.3741 82.56 69.5421 82.208 69.5421 81.792C69.5421 81.392 69.3741 81.056 69.0381 80.784C68.7021 80.496 68.2061 80.288 67.5501 80.16C66.8941 80.032 66.0861 79.968 65.1261 79.968ZM65.3901 67.944H69.9261V70.536H65.3901V67.944ZM82.1257 84V81.3409L88.3388 75.5881C88.8672 75.0767 89.3104 74.6165 89.6683 74.2074C90.032 73.7983 90.3075 73.3977 90.495 73.0057C90.6825 72.608 90.7763 72.179 90.7763 71.7188C90.7763 71.2074 90.6598 70.767 90.4268 70.3977C90.1939 70.0227 89.8757 69.7358 89.4723 69.5369C89.0689 69.3324 88.6115 69.2301 88.1001 69.2301C87.5661 69.2301 87.1001 69.3381 86.7024 69.554C86.3047 69.7699 85.9979 70.0795 85.782 70.483C85.5661 70.8864 85.4581 71.3665 85.4581 71.9233H81.9553C81.9553 70.7812 82.2138 69.7898 82.7308 68.9489C83.2479 68.108 83.9723 67.4574 84.9041 66.9972C85.8359 66.5369 86.9098 66.3068 88.1257 66.3068C89.3757 66.3068 90.4638 66.5284 91.3899 66.9716C92.3217 67.4091 93.0462 68.017 93.5632 68.7955C94.0803 69.5739 94.3388 70.4659 94.3388 71.4716C94.3388 72.1307 94.2081 72.7812 93.9467 73.4233C93.6911 74.0653 93.2337 74.7784 92.5746 75.5625C91.9155 76.3409 90.9865 77.2756 89.7876 78.3665L87.2393 80.8636V80.983H94.5689V84H82.1257ZM96.8361 74.352H116.924V76.872H96.8361V74.352ZM105.284 71.016H108.476V75.336H105.284V71.016ZM99.2601 70.008H114.644V72.504H99.2601V70.008ZM99.2601 64.848H114.524V67.368H102.428V71.592H99.2601V64.848ZM106.796 77.976C109.196 77.976 111.084 78.336 112.46 79.056C113.836 79.76 114.524 80.768 114.524 82.08C114.524 83.376 113.836 84.376 112.46 85.08C111.084 85.8 109.196 86.16 106.796 86.16C104.396 86.16 102.508 85.8 101.132 85.08C99.7721 84.376 99.0921 83.376 99.0921 82.08C99.0921 80.768 99.7721 79.76 101.132 79.056C102.508 78.336 104.396 77.976 106.796 77.976ZM106.796 80.4C105.804 80.4 104.972 80.464 104.3 80.592C103.644 80.704 103.148 80.888 102.812 81.144C102.476 81.384 102.308 81.688 102.308 82.056C102.308 82.44 102.476 82.76 102.812 83.016C103.148 83.256 103.644 83.44 104.3 83.568C104.972 83.68 105.804 83.736 106.796 83.736C107.788 83.736 108.612 83.68 109.268 83.568C109.94 83.44 110.444 83.256 110.78 83.016C111.116 82.76 111.284 82.44 111.284 82.056C111.284 81.688 111.116 81.384 110.78 81.144C110.444 80.888 109.94 80.704 109.268 80.592C108.612 80.464 107.788 80.4 106.796 80.4Z" fill="white"/>
</svg>
