<svg width="158" height="101" viewBox="0 0 158 101" fill="none" xmlns="http://www.w3.org/2000/svg">
<path d="M119.205 11.6765L2 1L31.9753 31.2269L51.6416 52.7185L92.5602 100L100.966 72.5462L125.073 50.6387L136.968 34.1387L156 11.6765H119.205Z" fill="#020715" fill-opacity="0.65" stroke="#044778" stroke-opacity="0.2"/>
<path d="M61.192 17.848H67.048V20.416H61.192V17.848ZM55.144 12.592H57.712V15.832C57.712 17.224 57.592 18.576 57.352 19.888C57.112 21.2 56.744 22.424 56.248 23.56C55.752 24.696 55.12 25.696 54.352 26.56C53.6 27.424 52.704 28.12 51.664 28.648L49.672 26.104C50.616 25.656 51.424 25.072 52.096 24.352C52.784 23.632 53.352 22.816 53.8 21.904C54.264 20.976 54.6 20 54.808 18.976C55.032 17.936 55.144 16.888 55.144 15.832V12.592ZM55.792 12.592H58.336V15.832C58.336 16.872 58.44 17.904 58.648 18.928C58.856 19.936 59.168 20.88 59.584 21.76C60.016 22.64 60.568 23.424 61.24 24.112C61.912 24.784 62.712 25.328 63.64 25.744L61.72 28.288C60.68 27.776 59.784 27.104 59.032 26.272C58.28 25.424 57.664 24.456 57.184 23.368C56.72 22.28 56.368 21.096 56.128 19.816C55.904 18.536 55.792 17.208 55.792 15.832V12.592ZM65.44 10.864H68.632V33.16H65.44V10.864ZM80.4621 23.392H83.6541V26.776H80.4621V23.392ZM72.0381 21.472H92.1501V24.016H72.0381V21.472ZM74.2701 25.888H89.7261V33.136H86.5341V28.408H74.2701V25.888ZM74.6061 11.464H77.7501V13.408H86.4381V11.464H89.6061V20.032H74.6061V11.464ZM77.7501 15.808V17.536H86.4381V15.808H77.7501ZM96.4443 12.184H110.364V14.704H96.4443V12.184ZM94.1403 21.64H114.252V24.232H94.1403V21.64ZM102.468 23.464H105.684V33.136H102.468V23.464ZM108.732 12.184H111.876V14.152C111.876 14.952 111.86 15.8 111.828 16.696C111.812 17.592 111.748 18.576 111.636 19.648C111.524 20.704 111.316 21.888 111.012 23.2L107.892 22.816C108.308 20.976 108.548 19.368 108.612 17.992C108.692 16.6 108.732 15.32 108.732 14.152V12.184ZM55.144 41.064H57.784V43.032C57.784 44.52 57.552 45.92 57.088 47.232C56.64 48.544 55.952 49.688 55.024 50.664C54.096 51.64 52.904 52.376 51.448 52.872L49.768 50.304C51.048 49.904 52.08 49.328 52.864 48.576C53.648 47.824 54.224 46.968 54.592 46.008C54.96 45.048 55.144 44.056 55.144 43.032V41.064ZM55.792 41.064H58.384V42.888C58.384 43.864 58.552 44.808 58.888 45.72C59.224 46.616 59.76 47.416 60.496 48.12C61.232 48.808 62.184 49.344 63.352 49.728L61.696 52.224C60.336 51.744 59.216 51.048 58.336 50.136C57.472 49.224 56.832 48.152 56.416 46.92C56 45.672 55.792 44.328 55.792 42.888V41.064ZM65.368 39.912H68.584V52.92H65.368V39.912ZM61.048 53.496C63.4 53.496 65.256 53.88 66.616 54.648C67.976 55.4 68.656 56.448 68.656 57.792C68.656 59.168 67.976 60.232 66.616 60.984C65.256 61.752 63.4 62.136 61.048 62.136C58.696 62.136 56.84 61.752 55.48 60.984C54.12 60.232 53.44 59.168 53.44 57.792C53.44 56.448 54.12 55.4 55.48 54.648C56.84 53.88 58.696 53.496 61.048 53.496ZM61.048 55.968C60.088 55.968 59.28 56.032 58.624 56.16C57.968 56.288 57.464 56.496 57.112 56.784C56.776 57.056 56.608 57.392 56.608 57.792C56.608 58.208 56.776 58.56 57.112 58.848C57.464 59.12 57.968 59.328 58.624 59.472C59.28 59.6 60.088 59.664 61.048 59.664C62.008 59.664 62.816 59.6 63.472 59.472C64.128 59.328 64.624 59.12 64.96 58.848C65.296 58.56 65.464 58.208 65.464 57.792C65.464 57.392 65.296 57.056 64.96 56.784C64.624 56.496 64.128 56.288 63.472 56.16C62.816 56.032 62.008 55.968 61.048 55.968ZM61.312 43.944H65.848V46.536H61.312V43.944ZM84.1101 45.264H88.3341V47.856H84.1101V45.264ZM87.4461 39.912H90.6621V53.112H87.4461V39.912ZM83.1261 53.592C84.6941 53.592 86.0461 53.76 87.1821 54.096C88.3181 54.432 89.1901 54.92 89.7981 55.56C90.4221 56.2 90.7341 56.968 90.7341 57.864C90.7341 59.24 90.0541 60.296 88.6941 61.032C87.3341 61.784 85.4781 62.16 83.1261 62.16C80.7741 62.16 78.9181 61.784 77.5581 61.032C76.1981 60.296 75.5181 59.24 75.5181 57.864C75.5181 56.968 75.8221 56.2 76.4301 55.56C77.0541 54.92 77.9341 54.432 79.0701 54.096C80.2061 53.76 81.5581 53.592 83.1261 53.592ZM83.1261 56.016C82.1661 56.016 81.3581 56.088 80.7021 56.232C80.0461 56.36 79.5421 56.56 79.1901 56.832C78.8541 57.104 78.6861 57.448 78.6861 57.864C78.6861 58.28 78.8541 58.632 79.1901 58.92C79.5421 59.192 80.0461 59.4 80.7021 59.544C81.3581 59.672 82.1661 59.736 83.1261 59.736C84.0861 59.736 84.8941 59.672 85.5501 59.544C86.2061 59.4 86.7021 59.192 87.0381 58.92C87.3741 58.632 87.5421 58.28 87.5421 57.864C87.5421 57.448 87.3741 57.104 87.0381 56.832C86.7021 56.56 86.2061 56.36 85.5501 56.232C84.8941 56.088 84.0861 56.016 83.1261 56.016ZM77.1981 42.12H79.7901V43.536C79.7901 44.944 79.5661 46.288 79.1181 47.568C78.6701 48.848 77.9821 49.976 77.0541 50.952C76.1421 51.912 74.9741 52.632 73.5501 53.112L71.9421 50.592C72.8541 50.288 73.6381 49.88 74.2941 49.368C74.9661 48.856 75.5101 48.288 75.9261 47.664C76.3581 47.024 76.6781 46.352 76.8861 45.648C77.0941 44.944 77.1981 44.24 77.1981 43.536V42.12ZM77.8701 42.12H80.4141V43.512C80.4141 44.392 80.5901 45.256 80.9421 46.104C81.2941 46.952 81.8381 47.72 82.5741 48.408C83.3261 49.096 84.2861 49.64 85.4541 50.04L83.8941 52.536C82.5181 52.072 81.3821 51.392 80.4861 50.496C79.6061 49.584 78.9501 48.528 78.5181 47.328C78.0861 46.112 77.8701 44.84 77.8701 43.512V42.12ZM72.8061 41.256H84.7581V43.776H72.8061V41.256ZM102.165 42.5455V60H98.4744V46.0483H98.3722L94.375 48.554V45.2812L98.696 42.5455H102.165ZM105.906 50.352H125.994V52.872H105.906V50.352ZM114.354 47.016H117.546V51.336H114.354V47.016ZM108.33 46.008H123.714V48.504H108.33V46.008ZM108.33 40.848H123.594V43.368H111.498V47.592H108.33V40.848ZM115.866 53.976C118.266 53.976 120.154 54.336 121.53 55.056C122.906 55.76 123.594 56.768 123.594 58.08C123.594 59.376 122.906 60.376 121.53 61.08C120.154 61.8 118.266 62.16 115.866 62.16C113.466 62.16 111.578 61.8 110.202 61.08C108.842 60.376 108.162 59.376 108.162 58.08C108.162 56.768 108.842 55.76 110.202 55.056C111.578 54.336 113.466 53.976 115.866 53.976ZM115.866 56.4C114.874 56.4 114.042 56.464 113.37 56.592C112.714 56.704 112.218 56.888 111.882 57.144C111.546 57.384 111.378 57.688 111.378 58.056C111.378 58.44 111.546 58.76 111.882 59.016C112.218 59.256 112.714 59.44 113.37 59.568C114.042 59.68 114.874 59.736 115.866 59.736C116.858 59.736 117.682 59.68 118.338 59.568C119.01 59.44 119.514 59.256 119.85 59.016C120.186 58.76 120.354 58.44 120.354 58.056C120.354 57.688 120.186 57.384 119.85 57.144C119.514 56.888 119.01 56.704 118.338 56.592C117.682 56.464 116.858 56.4 115.866 56.4Z" fill="white"/>
</svg>
