<svg width="181" height="220" viewBox="0 0 181 220" fill="none" xmlns="http://www.w3.org/2000/svg">
<path d="M128.135 1L108.297 17.107L104.647 32.242L75.2872 129.717L67.0347 153.183L29.1049 159.848L1.49072 165.541C1.12041 172.715 0.601983 187.619 1.49072 189.841C2.37945 192.062 12.9702 210.206 18.1544 219L29.1049 208.586L43.0707 187.064L89.0943 179.704L111.154 183.87L128.135 165.541L146.227 149.99L157.019 133.605V115.554L140.038 103.474L151.623 87.0892L159.241 67.7885L174 48.0713L146.227 37.1019L128.135 1Z" fill="#020715" fill-opacity="0.65" stroke="#044778" stroke-opacity="0.2"/>
<path d="M85.192 100.848H91.048V103.416H85.192V100.848ZM79.144 95.592H81.712V98.832C81.712 100.224 81.592 101.576 81.352 102.888C81.112 104.2 80.744 105.424 80.248 106.56C79.752 107.696 79.12 108.696 78.352 109.56C77.6 110.424 76.704 111.12 75.664 111.648L73.672 109.104C74.616 108.656 75.424 108.072 76.096 107.352C76.784 106.632 77.352 105.816 77.8 104.904C78.264 103.976 78.6 103 78.808 101.976C79.032 100.936 79.144 99.888 79.144 98.832V95.592ZM79.792 95.592H82.336V98.832C82.336 99.872 82.44 100.904 82.648 101.928C82.856 102.936 83.168 103.88 83.584 104.76C84.016 105.64 84.568 106.424 85.24 107.112C85.912 107.784 86.712 108.328 87.64 108.744L85.72 111.288C84.68 110.776 83.784 110.104 83.032 109.272C82.28 108.424 81.664 107.456 81.184 106.368C80.72 105.28 80.368 104.096 80.128 102.816C79.904 101.536 79.792 100.208 79.792 98.832V95.592ZM89.44 93.864H92.632V116.16H89.44V93.864ZM104.462 106.392H107.654V109.776H104.462V106.392ZM96.0381 104.472H116.15V107.016H96.0381V104.472ZM98.2701 108.888H113.726V116.136H110.534V111.408H98.2701V108.888ZM98.6061 94.464H101.75V96.408H110.438V94.464H113.606V103.032H98.6061V94.464ZM101.75 98.808V100.536H110.438V98.808H101.75ZM120.444 95.184H134.364V97.704H120.444V95.184ZM118.14 104.64H138.252V107.232H118.14V104.64ZM126.468 106.464H129.684V116.136H126.468V106.464ZM132.732 95.184H135.876V97.152C135.876 97.952 135.86 98.8 135.828 99.696C135.812 100.592 135.748 101.576 135.636 102.648C135.524 103.704 135.316 104.888 135.012 106.2L131.892 105.816C132.308 103.976 132.548 102.368 132.612 100.992C132.692 99.6 132.732 98.32 132.732 97.152V95.184ZM82.408 133.64H85.576V136.736H82.408V133.64ZM76.528 123.224H79.672V124.688H88.36V123.224H91.528V130.688H76.528V123.224ZM79.672 127.016V128.312H88.36V127.016H79.672ZM73.96 131.84H94.072V134.36H73.96V131.84ZM76.264 135.728H91.624V141.392H79.456V143.408H76.288V139.184H88.48V138.056H76.264V135.728ZM76.288 142.592H92.224V144.992H76.288V142.592ZM110.366 122.888H113.582V135.728H110.366V122.888ZM112.67 128.144H116.486V130.76H112.67V128.144ZM106.286 136.112C107.822 136.112 109.15 136.296 110.27 136.664C111.39 137.032 112.254 137.552 112.862 138.224C113.486 138.88 113.798 139.68 113.798 140.624C113.798 141.568 113.486 142.376 112.862 143.048C112.254 143.736 111.39 144.256 110.27 144.608C109.15 144.976 107.822 145.16 106.286 145.16C104.766 145.16 103.438 144.976 102.302 144.608C101.166 144.256 100.286 143.736 99.6621 143.048C99.0541 142.376 98.7501 141.568 98.7501 140.624C98.7501 139.68 99.0541 138.88 99.6621 138.224C100.286 137.552 101.166 137.032 102.302 136.664C103.438 136.296 104.766 136.112 106.286 136.112ZM106.286 138.656C105.342 138.656 104.55 138.728 103.91 138.872C103.27 139.016 102.774 139.232 102.422 139.52C102.086 139.808 101.918 140.176 101.918 140.624C101.918 141.056 102.086 141.424 102.422 141.728C102.774 142.016 103.27 142.232 103.91 142.376C104.55 142.52 105.342 142.592 106.286 142.592C107.23 142.592 108.022 142.52 108.662 142.376C109.318 142.232 109.814 142.016 110.15 141.728C110.486 141.424 110.654 141.056 110.654 140.624C110.654 140.176 110.486 139.808 110.15 139.52C109.814 139.232 109.318 139.016 108.662 138.872C108.022 138.728 107.23 138.656 106.286 138.656ZM96.8061 132.008H98.6781C100.31 132.008 101.702 131.992 102.854 131.96C104.006 131.928 105.038 131.864 105.95 131.768C106.862 131.656 107.766 131.504 108.662 131.312L108.974 133.856C108.062 134.048 107.134 134.2 106.19 134.312C105.246 134.408 104.174 134.48 102.974 134.528C101.79 134.56 100.358 134.576 98.6781 134.576H96.8061V132.008ZM96.8061 124.376H106.766V126.944H99.9981V133.76H96.8061V124.376ZM126.165 125.545V143H122.474V129.048H122.372L118.375 131.554V128.281L122.696 125.545H126.165ZM129.906 133.352H149.994V135.872H129.906V133.352ZM138.354 130.016H141.546V134.336H138.354V130.016ZM132.33 129.008H147.714V131.504H132.33V129.008ZM132.33 123.848H147.594V126.368H135.498V130.592H132.33V123.848ZM139.866 136.976C142.266 136.976 144.154 137.336 145.53 138.056C146.906 138.76 147.594 139.768 147.594 141.08C147.594 142.376 146.906 143.376 145.53 144.08C144.154 144.8 142.266 145.16 139.866 145.16C137.466 145.16 135.578 144.8 134.202 144.08C132.842 143.376 132.162 142.376 132.162 141.08C132.162 139.768 132.842 138.76 134.202 138.056C135.578 137.336 137.466 136.976 139.866 136.976ZM139.866 139.4C138.874 139.4 138.042 139.464 137.37 139.592C136.714 139.704 136.218 139.888 135.882 140.144C135.546 140.384 135.378 140.688 135.378 141.056C135.378 141.44 135.546 141.76 135.882 142.016C136.218 142.256 136.714 142.44 137.37 142.568C138.042 142.68 138.874 142.736 139.866 142.736C140.858 142.736 141.682 142.68 142.338 142.568C143.01 142.44 143.514 142.256 143.85 142.016C144.186 141.76 144.354 141.44 144.354 141.056C144.354 140.688 144.186 140.384 143.85 140.144C143.514 139.888 143.01 139.704 142.338 139.592C141.682 139.464 140.858 139.4 139.866 139.4Z" fill="white"/>
</svg>
