<svg width="109" height="126" viewBox="0 0 109 126" fill="none" xmlns="http://www.w3.org/2000/svg">
<path d="M65.2897 1H38.1144L19.9977 11.0315C18.7036 16.8367 15.889 29.5618 14.9832 34.0202C13.8509 39.5933 8.67464 68.1551 8.02761 70.6629C7.38058 73.1708 1.07189 89.3326 1.07189 90.8652C1.07189 92.3978 0.910135 109.813 1.07189 110.789C1.2013 111.569 8.99802 120.588 12.8802 125L17.7329 123.607L25.8208 117.616L44.4229 122.074L52.5108 116.501L67.3925 114.69L75 90.8652L67.3925 82.451V59.3529L75 21.0588L65.2897 1Z" fill="#020715" fill-opacity="0.65" stroke="#044778" stroke-opacity="0.2"/>
<path d="M13.192 49.848H19.048V52.416H13.192V49.848ZM7.144 44.592H9.712V47.832C9.712 49.224 9.592 50.576 9.352 51.888C9.112 53.2 8.744 54.424 8.248 55.56C7.752 56.696 7.12 57.696 6.352 58.56C5.6 59.424 4.704 60.12 3.664 60.648L1.672 58.104C2.616 57.656 3.424 57.072 4.096 56.352C4.784 55.632 5.352 54.816 5.8 53.904C6.264 52.976 6.6 52 6.808 50.976C7.032 49.936 7.144 48.888 7.144 47.832V44.592ZM7.792 44.592H10.336V47.832C10.336 48.872 10.44 49.904 10.648 50.928C10.856 51.936 11.168 52.88 11.584 53.76C12.016 54.64 12.568 55.424 13.24 56.112C13.912 56.784 14.712 57.328 15.64 57.744L13.72 60.288C12.68 59.776 11.784 59.104 11.032 58.272C10.28 57.424 9.664 56.456 9.184 55.368C8.72 54.28 8.368 53.096 8.128 51.816C7.904 50.536 7.792 49.208 7.792 47.832V44.592ZM17.44 42.864H20.632V65.16H17.44V42.864ZM32.4621 55.392H35.6541V58.776H32.4621V55.392ZM24.0381 53.472H44.1501V56.016H24.0381V53.472ZM26.2701 57.888H41.7261V65.136H38.5341V60.408H26.2701V57.888ZM26.6061 43.464H29.7501V45.408H38.4381V43.464H41.6061V52.032H26.6061V43.464ZM29.7501 47.808V49.536H38.4381V47.808H29.7501ZM48.4443 44.184H62.3643V46.704H48.4443V44.184ZM46.1403 53.64H66.2523V56.232H46.1403V53.64ZM54.4683 55.464H57.6843V65.136H54.4683V55.464ZM60.7323 44.184H63.8763V46.152C63.8763 46.952 63.8603 47.8 63.8283 48.696C63.8123 49.592 63.7483 50.576 63.6363 51.648C63.5243 52.704 63.3163 53.888 63.0123 55.2L59.8923 54.816C60.3083 52.976 60.5483 51.368 60.6123 49.992C60.6923 48.6 60.7323 47.32 60.7323 46.152V44.184ZM16.936 71.912H20.152V85.16H16.936V71.912ZM18.544 77.216H22.36V79.832H18.544V77.216ZM4.768 73.16H7.024V74.408C7.024 75.336 6.968 76.272 6.856 77.216C6.744 78.144 6.544 79.04 6.256 79.904C5.984 80.752 5.608 81.528 5.128 82.232C4.648 82.92 4.024 83.496 3.256 83.96L1.552 81.68C2.192 81.28 2.72 80.808 3.136 80.264C3.552 79.704 3.88 79.104 4.12 78.464C4.36 77.808 4.528 77.136 4.624 76.448C4.72 75.76 4.768 75.08 4.768 74.408V73.16ZM5.56 73.16H7.768V74.408C7.768 75.048 7.8 75.712 7.864 76.4C7.944 77.088 8.088 77.768 8.296 78.44C8.504 79.096 8.8 79.72 9.184 80.312C9.584 80.904 10.096 81.424 10.72 81.872L9.208 84.2C8.44 83.704 7.816 83.088 7.336 82.352C6.856 81.6 6.488 80.784 6.232 79.904C5.976 79.008 5.8 78.088 5.704 77.144C5.608 76.2 5.56 75.288 5.56 74.408V73.16ZM10.672 73.16H12.88V74.408C12.88 75.304 12.832 76.224 12.736 77.168C12.64 78.112 12.464 79.032 12.208 79.928C11.952 80.808 11.584 81.616 11.104 82.352C10.624 83.088 9.992 83.704 9.208 84.2L7.72 81.872C8.344 81.424 8.848 80.912 9.232 80.336C9.632 79.744 9.936 79.12 10.144 78.464C10.352 77.792 10.488 77.112 10.552 76.424C10.632 75.72 10.672 75.048 10.672 74.408V73.16ZM11.392 73.16H13.672V74.408C13.672 75.32 13.76 76.24 13.936 77.168C14.112 78.08 14.432 78.928 14.896 79.712C15.36 80.496 16.016 81.152 16.864 81.68L15.16 83.96C14.152 83.336 13.376 82.528 12.832 81.536C12.288 80.528 11.912 79.408 11.704 78.176C11.496 76.944 11.392 75.688 11.392 74.408V73.16ZM12.592 85.4C14.176 85.4 15.544 85.576 16.696 85.928C17.864 86.264 18.76 86.76 19.384 87.416C20.008 88.072 20.32 88.856 20.32 89.768C20.32 90.68 20.008 91.464 19.384 92.12C18.76 92.776 17.864 93.272 16.696 93.608C15.544 93.944 14.176 94.112 12.592 94.112C11.024 94.112 9.664 93.944 8.512 93.608C7.36 93.272 6.464 92.776 5.824 92.12C5.2 91.464 4.888 90.68 4.888 89.768C4.888 88.856 5.2 88.072 5.824 87.416C6.464 86.76 7.36 86.264 8.512 85.928C9.664 85.576 11.024 85.4 12.592 85.4ZM12.592 87.92C11.632 87.92 10.816 87.984 10.144 88.112C9.472 88.24 8.968 88.44 8.632 88.712C8.296 88.984 8.128 89.336 8.128 89.768C8.128 90.184 8.296 90.528 8.632 90.8C8.968 91.072 9.472 91.28 10.144 91.424C10.816 91.552 11.632 91.616 12.592 91.616C13.584 91.616 14.408 91.552 15.064 91.424C15.736 91.28 16.24 91.072 16.576 90.8C16.928 90.528 17.104 90.184 17.104 89.768C17.104 89.336 16.928 88.984 16.576 88.712C16.24 88.44 15.736 88.24 15.064 88.112C14.408 87.984 13.584 87.92 12.592 87.92ZM28.5741 79.328H31.7421V83.408H28.5741V79.328ZM36.3741 79.328H39.5661V83.408H36.3741V79.328ZM24.0381 82.448H44.1501V84.944H24.0381V82.448ZM34.0461 86.072C36.4461 86.072 38.3341 86.424 39.7101 87.128C41.0861 87.816 41.7741 88.808 41.7741 90.104C41.7741 91.384 41.0861 92.376 39.7101 93.08C38.3341 93.784 36.4461 94.136 34.0461 94.136C31.6461 94.136 29.7581 93.784 28.3821 93.08C27.0221 92.376 26.3421 91.384 26.3421 90.104C26.3421 88.808 27.0221 87.816 28.3821 87.128C29.7581 86.424 31.6461 86.072 34.0461 86.072ZM34.0461 88.472C33.0541 88.472 32.2221 88.536 31.5501 88.664C30.8941 88.776 30.3981 88.952 30.0621 89.192C29.7261 89.432 29.5581 89.736 29.5581 90.104C29.5581 90.472 29.7261 90.784 30.0621 91.04C30.3981 91.28 30.8941 91.456 31.5501 91.568C32.2221 91.68 33.0541 91.736 34.0461 91.736C35.0381 91.736 35.8621 91.68 36.5181 91.568C37.1901 91.456 37.6941 91.28 38.0301 91.04C38.3661 90.784 38.5341 90.472 38.5341 90.104C38.5341 89.736 38.3661 89.432 38.0301 89.192C37.6941 88.952 37.1901 88.776 36.5181 88.664C35.8621 88.536 35.0381 88.472 34.0461 88.472ZM34.0941 72.224C35.7421 72.224 37.1661 72.4 38.3661 72.752C39.5821 73.088 40.5181 73.576 41.1741 74.216C41.8301 74.856 42.1581 75.616 42.1581 76.496C42.1581 77.376 41.8301 78.136 41.1741 78.776C40.5181 79.4 39.5821 79.888 38.3661 80.24C37.1661 80.576 35.7421 80.744 34.0941 80.744C32.4781 80.744 31.0621 80.576 29.8461 80.24C28.6301 79.888 27.6941 79.4 27.0381 78.776C26.3821 78.136 26.0541 77.376 26.0541 76.496C26.0541 75.616 26.3821 74.856 27.0381 74.216C27.6941 73.576 28.6301 73.088 29.8461 72.752C31.0621 72.4 32.4781 72.224 34.0941 72.224ZM34.0941 74.648C33.1021 74.648 32.2461 74.72 31.5261 74.864C30.8061 74.992 30.2621 75.192 29.8941 75.464C29.5421 75.736 29.3661 76.08 29.3661 76.496C29.3661 76.896 29.5421 77.232 29.8941 77.504C30.2621 77.776 30.8061 77.984 31.5261 78.128C32.2461 78.256 33.1021 78.32 34.0941 78.32C35.1181 78.32 35.9821 78.256 36.6861 78.128C37.3901 77.984 37.9261 77.776 38.2941 77.504C38.6621 77.232 38.8461 76.896 38.8461 76.496C38.8461 76.08 38.6621 75.736 38.2941 75.464C37.9261 75.192 37.3901 74.992 36.6861 74.864C35.9821 74.72 35.1181 74.648 34.0941 74.648ZM54.1648 74.5455V92H50.4744V78.0483H50.3722L46.375 80.554V77.2812L50.696 74.5455H54.1648ZM57.9064 82.352H77.9944V84.872H57.9064V82.352ZM66.3544 79.016H69.5464V83.336H66.3544V79.016ZM60.3304 78.008H75.7144V80.504H60.3304V78.008ZM60.3304 72.848H75.5944V75.368H63.4984V79.592H60.3304V72.848ZM67.8664 85.976C70.2664 85.976 72.1544 86.336 73.5304 87.056C74.9064 87.76 75.5944 88.768 75.5944 90.08C75.5944 91.376 74.9064 92.376 73.5304 93.08C72.1544 93.8 70.2664 94.16 67.8664 94.16C65.4664 94.16 63.5784 93.8 62.2024 93.08C60.8424 92.376 60.1624 91.376 60.1624 90.08C60.1624 88.768 60.8424 87.76 62.2024 87.056C63.5784 86.336 65.4664 85.976 67.8664 85.976ZM67.8664 88.4C66.8744 88.4 66.0424 88.464 65.3704 88.592C64.7144 88.704 64.2184 88.888 63.8824 89.144C63.5464 89.384 63.3784 89.688 63.3784 90.056C63.3784 90.44 63.5464 90.76 63.8824 91.016C64.2184 91.256 64.7144 91.44 65.3704 91.568C66.0424 91.68 66.8744 91.736 67.8664 91.736C68.8584 91.736 69.6824 91.68 70.3384 91.568C71.0104 91.44 71.5144 91.256 71.8504 91.016C72.1864 90.76 72.3544 90.44 72.3544 90.056C72.3544 89.688 72.1864 89.384 71.8504 89.144C71.5144 88.888 71.0104 88.704 70.3384 88.592C69.6824 88.464 68.8584 88.4 67.8664 88.4Z" fill="white"/>
</svg>
