<svg width="604" height="634" viewBox="0 0 604 634" fill="none" xmlns="http://www.w3.org/2000/svg">
<path d="M568.402 84.1739L389.878 1L369.811 29.5341V107.851H223.117L165.685 197.703L111.713 335.517L41.1333 440.547L1 566.218L165.685 633L301.308 613.573L310.303 552.255L398.874 440.547L407.177 369.515L533.113 403.513L603 231.701L568.402 84.1739Z" fill="#020715" fill-opacity="0.65" stroke="#044778" stroke-opacity="0.2"/>
<path d="M304.008 303.352H324.096V305.872H304.008V303.352ZM312.456 300.016H315.648V304.336H312.456V300.016ZM306.432 299.008H321.816V301.504H306.432V299.008ZM306.432 293.848H321.696V296.368H309.6V300.592H306.432V293.848ZM313.968 306.976C316.368 306.976 318.256 307.336 319.632 308.056C321.008 308.76 321.696 309.768 321.696 311.08C321.696 312.376 321.008 313.376 319.632 314.08C318.256 314.8 316.368 315.16 313.968 315.16C311.568 315.16 309.68 314.8 308.304 314.08C306.944 313.376 306.264 312.376 306.264 311.08C306.264 309.768 306.944 308.76 308.304 308.056C309.68 307.336 311.568 306.976 313.968 306.976ZM313.968 309.4C312.976 309.4 312.144 309.464 311.472 309.592C310.816 309.704 310.32 309.888 309.984 310.144C309.648 310.384 309.48 310.688 309.48 311.056C309.48 311.44 309.648 311.76 309.984 312.016C310.32 312.256 310.816 312.44 311.472 312.568C312.144 312.68 312.976 312.736 313.968 312.736C314.96 312.736 315.784 312.68 316.44 312.568C317.112 312.44 317.616 312.256 317.952 312.016C318.288 311.76 318.456 311.44 318.456 311.056C318.456 310.688 318.288 310.384 317.952 310.144C317.616 309.888 317.112 309.704 316.44 309.592C315.784 309.464 314.96 309.4 313.968 309.4ZM340.342 292.888H343.534V305.416H340.342V292.888ZM342.67 297.568H346.486V300.184H342.67V297.568ZM329.086 306.424H343.534V314.896H329.086V306.424ZM340.438 308.944H332.23V312.376H340.438V308.944ZM326.95 293.944H330.142V303.04H326.95V293.944ZM326.95 301.672H328.798C330.318 301.672 331.894 301.616 333.526 301.504C335.174 301.376 336.87 301.144 338.614 300.808L338.974 303.352C337.182 303.72 335.43 303.976 333.718 304.12C332.022 304.248 330.382 304.312 328.798 304.312H326.95V301.672ZM350.444 294.184H364.364V296.704H350.444V294.184ZM348.14 303.64H368.252V306.232H348.14V303.64ZM356.468 305.464H359.684V315.136H356.468V305.464ZM362.732 294.184H365.876V296.152C365.876 296.952 365.86 297.8 365.828 298.696C365.812 299.592 365.748 300.576 365.636 301.648C365.524 302.704 365.316 303.888 365.012 305.2L361.892 304.816C362.308 302.976 362.548 301.368 362.612 299.992C362.692 298.6 362.732 297.32 362.732 296.152V294.184ZM308.952 325.8H311.544V326.592C311.544 327.888 311.32 329.112 310.872 330.264C310.424 331.416 309.736 332.416 308.808 333.264C307.896 334.112 306.736 334.744 305.328 335.16L303.816 332.688C305.016 332.336 305.992 331.848 306.744 331.224C307.512 330.584 308.072 329.864 308.424 329.064C308.776 328.248 308.952 327.424 308.952 326.592V325.8ZM309.552 325.8H312.144V326.592C312.144 327.168 312.24 327.736 312.432 328.296C312.64 328.856 312.952 329.384 313.368 329.88C313.8 330.376 314.344 330.816 315 331.2C315.656 331.584 316.424 331.896 317.304 332.136L315.864 334.632C314.456 334.248 313.28 333.664 312.336 332.88C311.408 332.08 310.712 331.136 310.248 330.048C309.784 328.96 309.552 327.808 309.552 326.592V325.8ZM304.584 324.192H316.536V326.712H304.584V324.192ZM308.952 321.816H312.144V325.2H308.952V321.816ZM315.912 327.816H320.136V330.384H315.912V327.816ZM319.368 321.912H322.584V335.328H319.368V321.912ZM315.048 335.688C317.4 335.688 319.256 336.056 320.616 336.792C321.976 337.528 322.656 338.568 322.656 339.912C322.656 341.24 321.976 342.272 320.616 343.008C319.256 343.76 317.4 344.136 315.048 344.136C312.696 344.136 310.84 343.76 309.48 343.008C308.12 342.272 307.44 341.24 307.44 339.912C307.44 338.568 308.12 337.528 309.48 336.792C310.84 336.056 312.696 335.688 315.048 335.688ZM315.048 338.136C314.088 338.136 313.272 338.2 312.6 338.328C311.944 338.456 311.448 338.656 311.112 338.928C310.776 339.184 310.608 339.512 310.608 339.912C310.608 340.296 310.776 340.624 311.112 340.896C311.448 341.168 311.944 341.368 312.6 341.496C313.272 341.624 314.088 341.688 315.048 341.688C316.024 341.688 316.84 341.624 317.496 341.496C318.152 341.368 318.64 341.168 318.96 340.896C319.296 340.624 319.464 340.296 319.464 339.912C319.464 339.512 319.296 339.184 318.96 338.928C318.64 338.656 318.152 338.456 317.496 338.328C316.84 338.2 316.024 338.136 315.048 338.136ZM326.062 333.576H346.174V336.048H326.062V333.576ZM328.51 322.416H343.726V328.368H331.702V330.816H328.558V326.112H340.582V324.84H328.51V322.416ZM328.558 329.688H344.158V332.112H328.558V329.688ZM336.046 337.008C338.526 337.008 340.446 337.312 341.806 337.92C343.166 338.528 343.846 339.424 343.846 340.608C343.846 341.76 343.166 342.64 341.806 343.248C340.446 343.856 338.526 344.16 336.046 344.16C333.582 344.16 331.662 343.856 330.286 343.248C328.926 342.64 328.246 341.752 328.246 340.584C328.246 339.416 328.926 338.528 330.286 337.92C331.662 337.312 333.582 337.008 336.046 337.008ZM336.07 339.336C334.502 339.336 333.342 339.44 332.59 339.648C331.854 339.84 331.486 340.152 331.486 340.584C331.486 340.872 331.646 341.112 331.966 341.304C332.302 341.48 332.806 341.616 333.478 341.712C334.15 341.792 335.006 341.832 336.046 341.832C337.102 341.832 337.966 341.792 338.638 341.712C339.326 341.616 339.83 341.48 340.15 341.304C340.47 341.112 340.63 340.872 340.63 340.584C340.63 340.152 340.262 339.84 339.526 339.648C338.79 339.44 337.638 339.336 336.07 339.336ZM331.198 330.96H334.342V335.208H331.198V330.96ZM338.038 330.96H341.182V335.208H338.038V330.96ZM348.164 332.352H368.252V334.872H348.164V332.352ZM356.612 329.016H359.804V333.336H356.612V329.016ZM350.588 328.008H365.972V330.504H350.588V328.008ZM350.588 322.848H365.852V325.368H353.756V329.592H350.588V322.848ZM358.124 335.976C360.524 335.976 362.412 336.336 363.788 337.056C365.164 337.76 365.852 338.768 365.852 340.08C365.852 341.376 365.164 342.376 363.788 343.08C362.412 343.8 360.524 344.16 358.124 344.16C355.724 344.16 353.836 343.8 352.46 343.08C351.1 342.376 350.42 341.376 350.42 340.08C350.42 338.768 351.1 337.76 352.46 337.056C353.836 336.336 355.724 335.976 358.124 335.976ZM358.124 338.4C357.132 338.4 356.3 338.464 355.628 338.592C354.972 338.704 354.476 338.888 354.14 339.144C353.804 339.384 353.636 339.688 353.636 340.056C353.636 340.44 353.804 340.76 354.14 341.016C354.476 341.256 354.972 341.44 355.628 341.568C356.3 341.68 357.132 341.736 358.124 341.736C359.116 341.736 359.94 341.68 360.596 341.568C361.268 341.44 361.772 341.256 362.108 341.016C362.444 340.76 362.612 340.44 362.612 340.056C362.612 339.688 362.444 339.384 362.108 339.144C361.772 338.888 361.268 338.704 360.596 338.592C359.94 338.464 359.116 338.4 358.124 338.4Z" fill="white"/>
</svg>
