<svg width="166" height="155" viewBox="0 0 166 155" fill="none" xmlns="http://www.w3.org/2000/svg">
<path d="M144.147 35.7005L43.4138 1L16.5517 18.3502L1 39.4723L21.8534 71.4286V98.75L43.4138 154L89.2017 148.536V112.834L114.697 104.821L123.647 81.3391L165 59.2742L144.147 35.7005Z" fill="#020715" fill-opacity="0.65" stroke="#044778" stroke-opacity="0.2"/>
<path d="M40.008 49.352H60.096V51.872H40.008V49.352ZM48.456 46.016H51.648V50.336H48.456V46.016ZM42.432 45.008H57.816V47.504H42.432V45.008ZM42.432 39.848H57.696V42.368H45.6V46.592H42.432V39.848ZM49.968 52.976C52.368 52.976 54.256 53.336 55.632 54.056C57.008 54.76 57.696 55.768 57.696 57.08C57.696 58.376 57.008 59.376 55.632 60.08C54.256 60.8 52.368 61.16 49.968 61.16C47.568 61.16 45.68 60.8 44.304 60.08C42.944 59.376 42.264 58.376 42.264 57.08C42.264 55.768 42.944 54.76 44.304 54.056C45.68 53.336 47.568 52.976 49.968 52.976ZM49.968 55.4C48.976 55.4 48.144 55.464 47.472 55.592C46.816 55.704 46.32 55.888 45.984 56.144C45.648 56.384 45.48 56.688 45.48 57.056C45.48 57.44 45.648 57.76 45.984 58.016C46.32 58.256 46.816 58.44 47.472 58.568C48.144 58.68 48.976 58.736 49.968 58.736C50.96 58.736 51.784 58.68 52.44 58.568C53.112 58.44 53.616 58.256 53.952 58.016C54.288 57.76 54.456 57.44 54.456 57.056C54.456 56.688 54.288 56.384 53.952 56.144C53.616 55.888 53.112 55.704 52.44 55.592C51.784 55.464 50.96 55.4 49.968 55.4ZM76.3421 38.888H79.5341V51.416H76.3421V38.888ZM78.6701 43.568H82.4861V46.184H78.6701V43.568ZM65.0861 52.424H79.5341V60.896H65.0861V52.424ZM76.4381 54.944H68.2301V58.376H76.4381V54.944ZM62.9501 39.944H66.1421V49.04H62.9501V39.944ZM62.9501 47.672H64.7981C66.3181 47.672 67.8941 47.616 69.5261 47.504C71.1741 47.376 72.8701 47.144 74.6141 46.808L74.9741 49.352C73.1821 49.72 71.4301 49.976 69.7181 50.12C68.0221 50.248 66.3821 50.312 64.7981 50.312H62.9501V47.672ZM86.4443 40.184H100.364V42.704H86.4443V40.184ZM84.1403 49.64H104.252V52.232H84.1403V49.64ZM92.4683 51.464H95.6843V61.136H92.4683V51.464ZM98.7323 40.184H101.876V42.152C101.876 42.952 101.86 43.8 101.828 44.696C101.812 45.592 101.748 46.576 101.636 47.648C101.524 48.704 101.316 49.888 101.012 51.2L97.8923 50.816C98.3083 48.976 98.5483 47.368 98.6123 45.992C98.6923 44.6 98.7323 43.32 98.7323 42.152V40.184ZM39.96 78.88H60.096V81.4H39.96V78.88ZM48.696 80.464H51.888V85.144H48.696V80.464ZM42.432 68.824H57.528V77.104H42.432V68.824ZM54.384 71.32H45.576V74.584H54.384V71.32ZM42.288 87.184H57.864V89.752H42.288V87.184ZM42.288 83.272H45.48V88.048H42.288V83.272ZM67.2221 69.064H69.8621V71.032C69.8621 72.52 69.6301 73.92 69.1661 75.232C68.7181 76.544 68.0301 77.688 67.1021 78.664C66.1741 79.64 64.9821 80.376 63.5261 80.872L61.8461 78.304C63.1261 77.904 64.1581 77.328 64.9421 76.576C65.7261 75.824 66.3021 74.968 66.6701 74.008C67.0381 73.048 67.2221 72.056 67.2221 71.032V69.064ZM67.8701 69.064H70.4621V70.888C70.4621 71.864 70.6301 72.808 70.9661 73.72C71.3021 74.616 71.8381 75.416 72.5741 76.12C73.3101 76.808 74.2621 77.344 75.4301 77.728L73.7741 80.224C72.4141 79.744 71.2941 79.048 70.4141 78.136C69.5501 77.224 68.9101 76.152 68.4941 74.92C68.0781 73.672 67.8701 72.328 67.8701 70.888V69.064ZM77.4461 67.912H80.6621V80.92H77.4461V67.912ZM73.1261 81.496C75.4781 81.496 77.3341 81.88 78.6941 82.648C80.0541 83.4 80.7341 84.448 80.7341 85.792C80.7341 87.168 80.0541 88.232 78.6941 88.984C77.3341 89.752 75.4781 90.136 73.1261 90.136C70.7741 90.136 68.9181 89.752 67.5581 88.984C66.1981 88.232 65.5181 87.168 65.5181 85.792C65.5181 84.448 66.1981 83.4 67.5581 82.648C68.9181 81.88 70.7741 81.496 73.1261 81.496ZM73.1261 83.968C72.1661 83.968 71.3581 84.032 70.7021 84.16C70.0461 84.288 69.5421 84.496 69.1901 84.784C68.8541 85.056 68.6861 85.392 68.6861 85.792C68.6861 86.208 68.8541 86.56 69.1901 86.848C69.5421 87.12 70.0461 87.328 70.7021 87.472C71.3581 87.6 72.1661 87.664 73.1261 87.664C74.0861 87.664 74.8941 87.6 75.5501 87.472C76.2061 87.328 76.7021 87.12 77.0381 86.848C77.3741 86.56 77.5421 86.208 77.5421 85.792C77.5421 85.392 77.3741 85.056 77.0381 84.784C76.7021 84.496 76.2061 84.288 75.5501 84.16C74.8941 84.032 74.0861 83.968 73.1261 83.968ZM73.3901 71.944H77.9261V74.536H73.3901V71.944ZM84.1643 78.352H104.252V80.872H84.1643V78.352ZM92.6123 75.016H95.8043V79.336H92.6123V75.016ZM86.5883 74.008H101.972V76.504H86.5883V74.008ZM86.5883 68.848H101.852V71.368H89.7563V75.592H86.5883V68.848ZM94.1243 81.976C96.5243 81.976 98.4123 82.336 99.7883 83.056C101.164 83.76 101.852 84.768 101.852 86.08C101.852 87.376 101.164 88.376 99.7883 89.08C98.4123 89.8 96.5243 90.16 94.1243 90.16C91.7243 90.16 89.8363 89.8 88.4603 89.08C87.1003 88.376 86.4203 87.376 86.4203 86.08C86.4203 84.768 87.1003 83.76 88.4603 83.056C89.8363 82.336 91.7243 81.976 94.1243 81.976ZM94.1243 84.4C93.1323 84.4 92.3003 84.464 91.6283 84.592C90.9723 84.704 90.4763 84.888 90.1403 85.144C89.8043 85.384 89.6363 85.688 89.6363 86.056C89.6363 86.44 89.8043 86.76 90.1403 87.016C90.4763 87.256 90.9723 87.44 91.6283 87.568C92.3003 87.68 93.1323 87.736 94.1243 87.736C95.1163 87.736 95.9403 87.68 96.5963 87.568C97.2683 87.44 97.7723 87.256 98.1083 87.016C98.4443 86.76 98.6123 86.44 98.6123 86.056C98.6123 85.688 98.4443 85.384 98.1083 85.144C97.7723 84.888 97.2683 84.704 96.5963 84.592C95.9403 84.464 95.1163 84.4 94.1243 84.4Z" fill="white"/>
</svg>
