<svg width="149" height="161" viewBox="0 0 149 161" fill="none" xmlns="http://www.w3.org/2000/svg">
<path d="M127.98 94.458L137 136.794L108.62 142.246L76.2544 155.387L53.136 160V146.859L62.8617 101.425L49.7878 80.875L18.3787 66.8953L1 22.7195L49.7878 1L84.2653 45.9084L127.98 94.458Z" fill="#020715" fill-opacity="0.65" stroke="#044778" stroke-opacity="0.2"/>
<path d="M58.008 79.352H78.096V81.872H58.008V79.352ZM66.456 76.016H69.648V80.336H66.456V76.016ZM60.432 75.008H75.816V77.504H60.432V75.008ZM60.432 69.848H75.696V72.368H63.6V76.592H60.432V69.848ZM67.968 82.976C70.368 82.976 72.256 83.336 73.632 84.056C75.008 84.76 75.696 85.768 75.696 87.08C75.696 88.376 75.008 89.376 73.632 90.08C72.256 90.8 70.368 91.16 67.968 91.16C65.568 91.16 63.68 90.8 62.304 90.08C60.944 89.376 60.264 88.376 60.264 87.08C60.264 85.768 60.944 84.76 62.304 84.056C63.68 83.336 65.568 82.976 67.968 82.976ZM67.968 85.4C66.976 85.4 66.144 85.464 65.472 85.592C64.816 85.704 64.32 85.888 63.984 86.144C63.648 86.384 63.48 86.688 63.48 87.056C63.48 87.44 63.648 87.76 63.984 88.016C64.32 88.256 64.816 88.44 65.472 88.568C66.144 88.68 66.976 88.736 67.968 88.736C68.96 88.736 69.784 88.68 70.44 88.568C71.112 88.44 71.616 88.256 71.952 88.016C72.288 87.76 72.456 87.44 72.456 87.056C72.456 86.688 72.288 86.384 71.952 86.144C71.616 85.888 71.112 85.704 70.44 85.592C69.784 85.464 68.96 85.4 67.968 85.4ZM94.3421 68.888H97.5341V81.416H94.3421V68.888ZM96.6701 73.568H100.486V76.184H96.6701V73.568ZM83.0861 82.424H97.5341V90.896H83.0861V82.424ZM94.4381 84.944H86.2301V88.376H94.4381V84.944ZM80.9501 69.944H84.1421V79.04H80.9501V69.944ZM80.9501 77.672H82.7981C84.3181 77.672 85.8941 77.616 87.5261 77.504C89.1741 77.376 90.8701 77.144 92.6141 76.808L92.9741 79.352C91.1821 79.72 89.4301 79.976 87.7181 80.12C86.0221 80.248 84.3821 80.312 82.7981 80.312H80.9501V77.672ZM104.444 70.184H118.364V72.704H104.444V70.184ZM102.14 79.64H122.252V82.232H102.14V79.64ZM110.468 81.464H113.684V91.136H110.468V81.464ZM116.732 70.184H119.876V72.152C119.876 72.952 119.86 73.8 119.828 74.696C119.812 75.592 119.748 76.576 119.636 77.648C119.524 78.704 119.316 79.888 119.012 81.2L115.892 80.816C116.308 78.976 116.548 77.368 116.612 75.992C116.692 74.6 116.732 73.32 116.732 72.152V70.184ZM57.96 108.616H78.072V111.136H57.96V108.616ZM66.408 106H69.576V109.312H66.408V106ZM67.968 112.192C70.384 112.192 72.272 112.544 73.632 113.248C74.992 113.936 75.672 114.912 75.672 116.176C75.672 117.456 74.992 118.432 73.632 119.104C72.272 119.792 70.384 120.136 67.968 120.136C65.568 120.136 63.68 119.792 62.304 119.104C60.944 118.432 60.264 117.456 60.264 116.176C60.264 114.912 60.944 113.936 62.304 113.248C63.68 112.544 65.568 112.192 67.968 112.192ZM67.968 114.592C66.976 114.592 66.144 114.648 65.472 114.76C64.816 114.872 64.32 115.048 63.984 115.288C63.648 115.512 63.48 115.808 63.48 116.176C63.48 116.528 63.648 116.824 63.984 117.064C64.32 117.288 64.816 117.464 65.472 117.592C66.144 117.704 66.976 117.76 67.968 117.76C68.976 117.76 69.808 117.704 70.464 117.592C71.12 117.464 71.616 117.288 71.952 117.064C72.288 116.824 72.456 116.528 72.456 116.176C72.456 115.808 72.288 115.512 71.952 115.288C71.616 115.048 71.12 114.872 70.464 114.76C69.808 114.648 68.976 114.592 67.968 114.592ZM60.528 98.536H63.672V100.408H72.36V98.536H75.528V106.96H60.528V98.536ZM63.672 102.784V104.464H72.36V102.784H63.672ZM90.7901 101.104H96.4541V103.648H90.7901V101.104ZM90.7901 105.544H96.5501V108.088H90.7901V105.544ZM95.4461 97.912H98.6621V110.92H95.4461V97.912ZM80.9501 99.496H91.4621V109.72H80.9501V99.496ZM88.3421 102.016H84.0941V107.224H88.3421V102.016ZM91.1261 111.496C93.4781 111.496 95.3341 111.88 96.6941 112.648C98.0541 113.4 98.7341 114.448 98.7341 115.792C98.7341 117.168 98.0541 118.232 96.6941 118.984C95.3341 119.752 93.4781 120.136 91.1261 120.136C88.7741 120.136 86.9181 119.752 85.5581 118.984C84.1981 118.232 83.5181 117.168 83.5181 115.792C83.5181 114.448 84.1981 113.4 85.5581 112.648C86.9181 111.88 88.7741 111.496 91.1261 111.496ZM91.1261 113.944C90.1661 113.944 89.3581 114.008 88.7021 114.136C88.0461 114.264 87.5421 114.472 87.1901 114.76C86.8541 115.032 86.6861 115.384 86.6861 115.816C86.6861 116.232 86.8541 116.584 87.1901 116.872C87.5421 117.144 88.0461 117.352 88.7021 117.496C89.3581 117.624 90.1661 117.688 91.1261 117.688C92.0861 117.688 92.8941 117.624 93.5501 117.496C94.2061 117.352 94.7021 117.144 95.0381 116.872C95.3741 116.584 95.5421 116.232 95.5421 115.816C95.5421 115.384 95.3741 115.032 95.0381 114.76C94.7021 114.472 94.2061 114.264 93.5501 114.136C92.8941 114.008 92.0861 113.944 91.1261 113.944ZM102.164 108.352H122.252V110.872H102.164V108.352ZM110.612 105.016H113.804V109.336H110.612V105.016ZM104.588 104.008H119.972V106.504H104.588V104.008ZM104.588 98.848H119.852V101.368H107.756V105.592H104.588V98.848ZM112.124 111.976C114.524 111.976 116.412 112.336 117.788 113.056C119.164 113.76 119.852 114.768 119.852 116.08C119.852 117.376 119.164 118.376 117.788 119.08C116.412 119.8 114.524 120.16 112.124 120.16C109.724 120.16 107.836 119.8 106.46 119.08C105.1 118.376 104.42 117.376 104.42 116.08C104.42 114.768 105.1 113.76 106.46 113.056C107.836 112.336 109.724 111.976 112.124 111.976ZM112.124 114.4C111.132 114.4 110.3 114.464 109.628 114.592C108.972 114.704 108.476 114.888 108.14 115.144C107.804 115.384 107.636 115.688 107.636 116.056C107.636 116.44 107.804 116.76 108.14 117.016C108.476 117.256 108.972 117.44 109.628 117.568C110.3 117.68 111.132 117.736 112.124 117.736C113.116 117.736 113.94 117.68 114.596 117.568C115.268 117.44 115.772 117.256 116.108 117.016C116.444 116.76 116.612 116.44 116.612 116.056C116.612 115.688 116.444 115.384 116.108 115.144C115.772 114.888 115.268 114.704 114.596 114.592C113.94 114.464 113.116 114.4 112.124 114.4Z" fill="white"/>
</svg>
