<svg width="390" height="266" viewBox="0 0 390 266" fill="none" xmlns="http://www.w3.org/2000/svg">
<path d="M77.4242 136.688L1 33.0084L89.1818 1L162.428 3.78334H242.03L310.51 7.95835L335.455 46.0901L389 49.5693L376.607 89.0928L370.569 151.579L272.695 261.242L134.941 265L144.633 226.451L176.41 201.957L168.148 156.31L140.184 96.1903L77.4242 136.688Z" fill="#020715" fill-opacity="0.65" stroke="#044778" stroke-opacity="0.2"/>
<path d="M207.192 84.848H213.048V87.416H207.192V84.848ZM201.144 79.592H203.712V82.832C203.712 84.224 203.592 85.576 203.352 86.888C203.112 88.2 202.744 89.424 202.248 90.56C201.752 91.696 201.12 92.696 200.352 93.56C199.6 94.424 198.704 95.12 197.664 95.648L195.672 93.104C196.616 92.656 197.424 92.072 198.096 91.352C198.784 90.632 199.352 89.816 199.8 88.904C200.264 87.976 200.6 87 200.808 85.976C201.032 84.936 201.144 83.888 201.144 82.832V79.592ZM201.792 79.592H204.336V82.832C204.336 83.872 204.44 84.904 204.648 85.928C204.856 86.936 205.168 87.88 205.584 88.76C206.016 89.64 206.568 90.424 207.24 91.112C207.912 91.784 208.712 92.328 209.64 92.744L207.72 95.288C206.68 94.776 205.784 94.104 205.032 93.272C204.28 92.424 203.664 91.456 203.184 90.368C202.72 89.28 202.368 88.096 202.128 86.816C201.904 85.536 201.792 84.208 201.792 82.832V79.592ZM211.44 77.864H214.632V100.16H211.44V77.864ZM226.462 90.392H229.654V93.776H226.462V90.392ZM218.038 88.472H238.15V91.016H218.038V88.472ZM220.27 92.888H235.726V100.136H232.534V95.408H220.27V92.888ZM220.606 78.464H223.75V80.408H232.438V78.464H235.606V87.032H220.606V78.464ZM223.75 82.808V84.536H232.438V82.808H223.75ZM242.444 79.184H256.364V81.704H242.444V79.184ZM240.14 88.64H260.252V91.232H240.14V88.64ZM248.468 90.464H251.684V100.136H248.468V90.464ZM254.732 79.184H257.876V81.152C257.876 81.952 257.86 82.8 257.828 83.696C257.812 84.592 257.748 85.576 257.636 86.648C257.524 87.704 257.316 88.888 257.012 90.2L253.892 89.816C254.308 87.976 254.548 86.368 254.612 84.992C254.692 83.6 254.732 82.32 254.732 81.152V79.184ZM195.984 119.68H216.096V122.2H195.984V119.68ZM204.36 120.952H207.552V129.136H204.36V120.952ZM198.264 107.752H201.432V110.272H210.576V107.752H213.72V117.568H198.264V107.752ZM201.432 112.768V115.048H210.576V112.768H201.432ZM223.222 108.064H225.862V110.032C225.862 111.52 225.63 112.92 225.166 114.232C224.718 115.544 224.03 116.688 223.102 117.664C222.174 118.64 220.982 119.376 219.526 119.872L217.846 117.304C219.126 116.904 220.158 116.328 220.942 115.576C221.726 114.824 222.302 113.968 222.67 113.008C223.038 112.048 223.222 111.056 223.222 110.032V108.064ZM223.87 108.064H226.462V109.888C226.462 110.864 226.63 111.808 226.966 112.72C227.302 113.616 227.838 114.416 228.574 115.12C229.31 115.808 230.262 116.344 231.43 116.728L229.774 119.224C228.414 118.744 227.294 118.048 226.414 117.136C225.55 116.224 224.91 115.152 224.494 113.92C224.078 112.672 223.87 111.328 223.87 109.888V108.064ZM233.446 106.912H236.662V119.92H233.446V106.912ZM229.126 120.496C231.478 120.496 233.334 120.88 234.694 121.648C236.054 122.4 236.734 123.448 236.734 124.792C236.734 126.168 236.054 127.232 234.694 127.984C233.334 128.752 231.478 129.136 229.126 129.136C226.774 129.136 224.918 128.752 223.558 127.984C222.198 127.232 221.518 126.168 221.518 124.792C221.518 123.448 222.198 122.4 223.558 121.648C224.918 120.88 226.774 120.496 229.126 120.496ZM229.126 122.968C228.166 122.968 227.358 123.032 226.702 123.16C226.046 123.288 225.542 123.496 225.19 123.784C224.854 124.056 224.686 124.392 224.686 124.792C224.686 125.208 224.854 125.56 225.19 125.848C225.542 126.12 226.046 126.328 226.702 126.472C227.358 126.6 228.166 126.664 229.126 126.664C230.086 126.664 230.894 126.6 231.55 126.472C232.206 126.328 232.702 126.12 233.038 125.848C233.374 125.56 233.542 125.208 233.542 124.792C233.542 124.392 233.374 124.056 233.038 123.784C232.702 123.496 232.206 123.288 231.55 123.16C230.894 123.032 230.086 122.968 229.126 122.968ZM229.39 110.944H233.926V113.536H229.39V110.944ZM248.165 109.545V127H244.474V113.048H244.372L240.375 115.554V112.281L244.696 109.545H248.165ZM251.906 117.352H271.994V119.872H251.906V117.352ZM260.354 114.016H263.546V118.336H260.354V114.016ZM254.33 113.008H269.714V115.504H254.33V113.008ZM254.33 107.848H269.594V110.368H257.498V114.592H254.33V107.848ZM261.866 120.976C264.266 120.976 266.154 121.336 267.53 122.056C268.906 122.76 269.594 123.768 269.594 125.08C269.594 126.376 268.906 127.376 267.53 128.08C266.154 128.8 264.266 129.16 261.866 129.16C259.466 129.16 257.578 128.8 256.202 128.08C254.842 127.376 254.162 126.376 254.162 125.08C254.162 123.768 254.842 122.76 256.202 122.056C257.578 121.336 259.466 120.976 261.866 120.976ZM261.866 123.4C260.874 123.4 260.042 123.464 259.37 123.592C258.714 123.704 258.218 123.888 257.882 124.144C257.546 124.384 257.378 124.688 257.378 125.056C257.378 125.44 257.546 125.76 257.882 126.016C258.218 126.256 258.714 126.44 259.37 126.568C260.042 126.68 260.874 126.736 261.866 126.736C262.858 126.736 263.682 126.68 264.338 126.568C265.01 126.44 265.514 126.256 265.85 126.016C266.186 125.76 266.354 125.44 266.354 125.056C266.354 124.688 266.186 124.384 265.85 124.144C265.514 123.888 265.01 123.704 264.338 123.592C263.682 123.464 262.858 123.4 261.866 123.4Z" fill="white"/>
</svg>
