<svg width="157" height="269" viewBox="0 0 157 269" fill="none" xmlns="http://www.w3.org/2000/svg">
<path d="M71.2018 205.662L80.2377 267L133.063 191.087L156 145.539L139.318 109.1L101.09 113.959H80.2377L57.9955 67.8037L54.5202 26.5068L36.4484 1L1 39.2603L28.8027 136.429L71.2018 205.662Z" fill="#020715" fill-opacity="0.65" stroke="#044778" stroke-opacity="0.2"/>
<path d="M58.008 137.352H78.096V139.872H58.008V137.352ZM66.456 134.016H69.648V138.336H66.456V134.016ZM60.432 133.008H75.816V135.504H60.432V133.008ZM60.432 127.848H75.696V130.368H63.6V134.592H60.432V127.848ZM67.968 140.976C70.368 140.976 72.256 141.336 73.632 142.056C75.008 142.76 75.696 143.768 75.696 145.08C75.696 146.376 75.008 147.376 73.632 148.08C72.256 148.8 70.368 149.16 67.968 149.16C65.568 149.16 63.68 148.8 62.304 148.08C60.944 147.376 60.264 146.376 60.264 145.08C60.264 143.768 60.944 142.76 62.304 142.056C63.68 141.336 65.568 140.976 67.968 140.976ZM67.968 143.4C66.976 143.4 66.144 143.464 65.472 143.592C64.816 143.704 64.32 143.888 63.984 144.144C63.648 144.384 63.48 144.688 63.48 145.056C63.48 145.44 63.648 145.76 63.984 146.016C64.32 146.256 64.816 146.44 65.472 146.568C66.144 146.68 66.976 146.736 67.968 146.736C68.96 146.736 69.784 146.68 70.44 146.568C71.112 146.44 71.616 146.256 71.952 146.016C72.288 145.76 72.456 145.44 72.456 145.056C72.456 144.688 72.288 144.384 71.952 144.144C71.616 143.888 71.112 143.704 70.44 143.592C69.784 143.464 68.96 143.4 67.968 143.4ZM94.3421 126.888H97.5341V139.416H94.3421V126.888ZM96.6701 131.568H100.486V134.184H96.6701V131.568ZM83.0861 140.424H97.5341V148.896H83.0861V140.424ZM94.4381 142.944H86.2301V146.376H94.4381V142.944ZM80.9501 127.944H84.1421V137.04H80.9501V127.944ZM80.9501 135.672H82.7981C84.3181 135.672 85.8941 135.616 87.5261 135.504C89.1741 135.376 90.8701 135.144 92.6141 134.808L92.9741 137.352C91.1821 137.72 89.4301 137.976 87.7181 138.12C86.0221 138.248 84.3821 138.312 82.7981 138.312H80.9501V135.672ZM104.444 128.184H118.364V130.704H104.444V128.184ZM102.14 137.64H122.252V140.232H102.14V137.64ZM110.468 139.464H113.684V149.136H110.468V139.464ZM116.732 128.184H119.876V130.152C119.876 130.952 119.86 131.8 119.828 132.696C119.812 133.592 119.748 134.576 119.636 135.648C119.524 136.704 119.316 137.888 119.012 139.2L115.892 138.816C116.308 136.976 116.548 135.368 116.612 133.992C116.692 132.6 116.732 131.32 116.732 130.152V128.184ZM66.432 167.072H69.6V170.984H66.432V167.072ZM57.96 165.992H78.072V168.536H57.96V165.992ZM67.968 170.096C70.368 170.096 72.256 170.448 73.632 171.152C75.008 171.84 75.696 172.832 75.696 174.128C75.696 175.392 75.008 176.376 73.632 177.08C72.256 177.784 70.368 178.136 67.968 178.136C65.568 178.136 63.68 177.784 62.304 177.08C60.944 176.376 60.264 175.392 60.264 174.128C60.264 172.832 60.944 171.84 62.304 171.152C63.68 170.448 65.568 170.096 67.968 170.096ZM67.968 172.52C66.976 172.52 66.144 172.576 65.472 172.688C64.816 172.8 64.32 172.976 63.984 173.216C63.648 173.44 63.48 173.744 63.48 174.128C63.48 174.48 63.648 174.776 63.984 175.016C64.32 175.256 64.816 175.432 65.472 175.544C66.144 175.656 66.976 175.712 67.968 175.712C68.96 175.712 69.784 175.656 70.44 175.544C71.112 175.432 71.616 175.256 71.952 175.016C72.288 174.776 72.456 174.48 72.456 174.128C72.456 173.744 72.288 173.44 71.952 173.216C71.616 172.976 71.112 172.8 70.44 172.688C69.784 172.576 68.96 172.52 67.968 172.52ZM65.832 158H68.664V158.528C68.664 159.2 68.544 159.84 68.304 160.448C68.064 161.056 67.704 161.624 67.224 162.152C66.76 162.664 66.176 163.128 65.472 163.544C64.768 163.96 63.952 164.304 63.024 164.576C62.096 164.848 61.064 165.04 59.928 165.152L58.824 162.632C59.8 162.552 60.664 162.416 61.416 162.224C62.184 162.032 62.84 161.8 63.384 161.528C63.944 161.24 64.4 160.936 64.752 160.616C65.12 160.28 65.392 159.936 65.568 159.584C65.744 159.232 65.832 158.88 65.832 158.528V158ZM67.392 158H70.2V158.528C70.2 158.88 70.288 159.24 70.464 159.608C70.64 159.96 70.904 160.296 71.256 160.616C71.624 160.936 72.08 161.24 72.624 161.528C73.184 161.8 73.84 162.032 74.592 162.224C75.36 162.416 76.232 162.552 77.208 162.632L76.104 165.152C74.968 165.04 73.936 164.848 73.008 164.576C72.08 164.304 71.264 163.968 70.56 163.568C69.872 163.152 69.288 162.688 68.808 162.176C68.344 161.648 67.992 161.08 67.752 160.472C67.512 159.848 67.392 159.2 67.392 158.528V158ZM59.808 156.824H76.272V159.344H59.808V156.824ZM86.2301 157.112C87.3821 157.112 88.4141 157.344 89.3261 157.808C90.2381 158.272 90.9581 158.912 91.4861 159.728C92.0141 160.528 92.2781 161.456 92.2781 162.512C92.2781 163.552 92.0141 164.48 91.4861 165.296C90.9581 166.096 90.2381 166.728 89.3261 167.192C88.4141 167.656 87.3821 167.888 86.2301 167.888C85.0941 167.888 84.0701 167.656 83.1581 167.192C82.2461 166.728 81.5261 166.096 80.9981 165.296C80.4701 164.48 80.2061 163.552 80.2061 162.512C80.2061 161.456 80.4701 160.528 80.9981 159.728C81.5261 158.912 82.2461 158.272 83.1581 157.808C84.0701 157.344 85.0941 157.112 86.2301 157.112ZM86.2301 159.776C85.6861 159.776 85.1901 159.888 84.7421 160.112C84.2941 160.32 83.9421 160.632 83.6861 161.048C83.4461 161.448 83.3261 161.936 83.3261 162.512C83.3261 163.072 83.4461 163.56 83.6861 163.976C83.9421 164.376 84.2941 164.68 84.7421 164.888C85.1901 165.096 85.6861 165.2 86.2301 165.2C86.8061 165.2 87.3101 165.096 87.7421 164.888C88.1741 164.68 88.5181 164.376 88.7741 163.976C89.0301 163.56 89.1581 163.072 89.1581 162.512C89.1581 161.936 89.0301 161.448 88.7741 161.048C88.5181 160.632 88.1741 160.32 87.7421 160.112C87.3101 159.888 86.8061 159.776 86.2301 159.776ZM94.3421 155.912H97.5341V168.872H94.3421V155.912ZM96.6701 160.904H100.486V163.52H96.6701V160.904ZM90.2861 169.328C91.8221 169.328 93.1501 169.504 94.2701 169.856C95.4061 170.208 96.2781 170.712 96.8861 171.368C97.4941 172.024 97.7981 172.816 97.7981 173.744C97.7981 174.656 97.4941 175.44 96.8861 176.096C96.2781 176.752 95.4061 177.256 94.2701 177.608C93.1501 177.96 91.8221 178.136 90.2861 178.136C88.7501 178.136 87.4141 177.96 86.2781 177.608C85.1581 177.256 84.2861 176.752 83.6621 176.096C83.0541 175.44 82.7501 174.656 82.7501 173.744C82.7501 172.816 83.0541 172.024 83.6621 171.368C84.2861 170.712 85.1581 170.208 86.2781 169.856C87.4141 169.504 88.7501 169.328 90.2861 169.328ZM90.2861 171.848C89.3421 171.848 88.5501 171.92 87.9101 172.064C87.2701 172.192 86.7821 172.392 86.4461 172.664C86.1101 172.936 85.9421 173.296 85.9421 173.744C85.9421 174.16 86.1101 174.512 86.4461 174.8C86.7821 175.088 87.2701 175.304 87.9101 175.448C88.5501 175.576 89.3421 175.64 90.2861 175.64C91.2301 175.64 92.0221 175.576 92.6621 175.448C93.3181 175.304 93.8061 175.088 94.1261 174.8C94.4621 174.512 94.6301 174.16 94.6301 173.744C94.6301 173.296 94.4621 172.936 94.1261 172.664C93.8061 172.392 93.3181 172.192 92.6621 172.064C92.0221 171.92 91.2301 171.848 90.2861 171.848ZM102.164 166.352H122.252V168.872H102.164V166.352ZM110.612 163.016H113.804V167.336H110.612V163.016ZM104.588 162.008H119.972V164.504H104.588V162.008ZM104.588 156.848H119.852V159.368H107.756V163.592H104.588V156.848ZM112.124 169.976C114.524 169.976 116.412 170.336 117.788 171.056C119.164 171.76 119.852 172.768 119.852 174.08C119.852 175.376 119.164 176.376 117.788 177.08C116.412 177.8 114.524 178.16 112.124 178.16C109.724 178.16 107.836 177.8 106.46 177.08C105.1 176.376 104.42 175.376 104.42 174.08C104.42 172.768 105.1 171.76 106.46 171.056C107.836 170.336 109.724 169.976 112.124 169.976ZM112.124 172.4C111.132 172.4 110.3 172.464 109.628 172.592C108.972 172.704 108.476 172.888 108.14 173.144C107.804 173.384 107.636 173.688 107.636 174.056C107.636 174.44 107.804 174.76 108.14 175.016C108.476 175.256 108.972 175.44 109.628 175.568C110.3 175.68 111.132 175.736 112.124 175.736C113.116 175.736 113.94 175.68 114.596 175.568C115.268 175.44 115.772 175.256 116.108 175.016C116.444 174.76 116.612 174.44 116.612 174.056C116.612 173.688 116.444 173.384 116.108 173.144C115.772 172.888 115.268 172.704 114.596 172.592C113.94 172.464 113.116 172.4 112.124 172.4Z" fill="white"/>
</svg>
