<svg width="278" height="200" viewBox="0 0 278 200" fill="none" xmlns="http://www.w3.org/2000/svg">
<path d="M72.8001 12.7389L34.5173 21.9623L1 62.4894L10.0544 110.144L72.8001 148.016L158.714 199L277 170.366L249.331 137.468L259.015 110.144H205.06L209.902 62.4894V12.7389L163.98 2.53723L132.369 1L116.96 28.6702L72.8001 12.7389Z" fill="#020715" fill-opacity="0.65" stroke="#044778" stroke-opacity="0.2"/>
<path d="M102.192 70.848H108.048V73.416H102.192V70.848ZM96.144 65.592H98.712V68.832C98.712 70.224 98.592 71.576 98.352 72.888C98.112 74.2 97.744 75.424 97.248 76.56C96.752 77.696 96.12 78.696 95.352 79.56C94.6 80.424 93.704 81.12 92.664 81.648L90.672 79.104C91.616 78.656 92.424 78.072 93.096 77.352C93.784 76.632 94.352 75.816 94.8 74.904C95.264 73.976 95.6 73 95.808 71.976C96.032 70.936 96.144 69.888 96.144 68.832V65.592ZM96.792 65.592H99.336V68.832C99.336 69.872 99.44 70.904 99.648 71.928C99.856 72.936 100.168 73.88 100.584 74.76C101.016 75.64 101.568 76.424 102.24 77.112C102.912 77.784 103.712 78.328 104.64 78.744L102.72 81.288C101.68 80.776 100.784 80.104 100.032 79.272C99.28 78.424 98.664 77.456 98.184 76.368C97.72 75.28 97.368 74.096 97.128 72.816C96.904 71.536 96.792 70.208 96.792 68.832V65.592ZM106.44 63.864H109.632V86.16H106.44V63.864ZM121.462 76.392H124.654V79.776H121.462V76.392ZM113.038 74.472H133.15V77.016H113.038V74.472ZM115.27 78.888H130.726V86.136H127.534V81.408H115.27V78.888ZM115.606 64.464H118.75V66.408H127.438V64.464H130.606V73.032H115.606V64.464ZM118.75 68.808V70.536H127.438V68.808H118.75ZM137.444 65.184H151.364V67.704H137.444V65.184ZM135.14 74.64H155.252V77.232H135.14V74.64ZM143.468 76.464H146.684V86.136H143.468V76.464ZM149.732 65.184H152.876V67.152C152.876 67.952 152.86 68.8 152.828 69.696C152.812 70.592 152.748 71.576 152.636 72.648C152.524 73.704 152.316 74.888 152.012 76.2L148.892 75.816C149.308 73.976 149.548 72.368 149.612 70.992C149.692 69.6 149.732 68.32 149.732 67.152V65.184ZM91.752 94.304H94.752V97.448H97.584V94.304H100.536V105.08H91.752V94.304ZM94.752 99.872V102.56H97.584V99.872H94.752ZM106.872 92.912H109.92V106.28H106.872V92.912ZM104.232 98.336H107.76V100.904H104.232V98.336ZM102.192 93.296H105.168V106.208H102.192V93.296ZM94.632 107.312H109.92V115.136H106.728V109.832H94.632V107.312ZM124.39 97.04H128.926V99.632H124.39V97.04ZM118.126 94.04H120.742V96.128C120.742 97.6 120.518 98.984 120.07 100.28C119.638 101.56 118.966 102.68 118.054 103.64C117.158 104.6 116.006 105.32 114.598 105.8L112.894 103.304C114.142 102.888 115.15 102.312 115.918 101.576C116.686 100.824 117.246 99.984 117.598 99.056C117.95 98.112 118.126 97.136 118.126 96.128V94.04ZM118.774 94.04H121.366V96.32C121.366 97.008 121.462 97.688 121.654 98.36C121.846 99.016 122.142 99.64 122.542 100.232C122.942 100.824 123.454 101.352 124.078 101.816C124.702 102.28 125.454 102.656 126.334 102.944L124.654 105.44C123.326 104.976 122.222 104.288 121.342 103.376C120.478 102.464 119.83 101.408 119.398 100.208C118.982 98.992 118.774 97.696 118.774 96.32V94.04ZM116.494 107.12H131.662V115.136H128.446V109.664H116.494V107.12ZM128.446 92.912H131.662V106.136H128.446V92.912ZM135.164 103.352H155.252V105.872H135.164V103.352ZM143.612 100.016H146.804V104.336H143.612V100.016ZM137.588 99.008H152.972V101.504H137.588V99.008ZM137.588 93.848H152.852V96.368H140.756V100.592H137.588V93.848ZM145.124 106.976C147.524 106.976 149.412 107.336 150.788 108.056C152.164 108.76 152.852 109.768 152.852 111.08C152.852 112.376 152.164 113.376 150.788 114.08C149.412 114.8 147.524 115.16 145.124 115.16C142.724 115.16 140.836 114.8 139.46 114.08C138.1 113.376 137.42 112.376 137.42 111.08C137.42 109.768 138.1 108.76 139.46 108.056C140.836 107.336 142.724 106.976 145.124 106.976ZM145.124 109.4C144.132 109.4 143.3 109.464 142.628 109.592C141.972 109.704 141.476 109.888 141.14 110.144C140.804 110.384 140.636 110.688 140.636 111.056C140.636 111.44 140.804 111.76 141.14 112.016C141.476 112.256 141.972 112.44 142.628 112.568C143.3 112.68 144.132 112.736 145.124 112.736C146.116 112.736 146.94 112.68 147.596 112.568C148.268 112.44 148.772 112.256 149.108 112.016C149.444 111.76 149.612 111.44 149.612 111.056C149.612 110.688 149.444 110.384 149.108 110.144C148.772 109.888 148.268 109.704 147.596 109.592C146.94 109.464 146.116 109.4 145.124 109.4Z" fill="white"/>
</svg>
