<svg width="131" height="191" viewBox="0 0 131 191" fill="none" xmlns="http://www.w3.org/2000/svg">
<path d="M71.1452 176.144L6.0899 190L8.15768 181.132L2.74965 166.721L1 156.606L9.74827 146.076L16.2697 133.882L21.3596 109.911L16.2697 95.2229L8.15768 75.9626L16.2697 66.2632L26.4495 52.684L38.2199 30.2368L41.4011 13.3321L51.4219 1L116 13.3321L71.1452 176.144Z" fill="#020715" fill-opacity="0.65" stroke="#044778" stroke-opacity="0.2"/>
<path d="M23.192 70.848H29.048V73.416H23.192V70.848ZM17.144 65.592H19.712V68.832C19.712 70.224 19.592 71.576 19.352 72.888C19.112 74.2 18.744 75.424 18.248 76.56C17.752 77.696 17.12 78.696 16.352 79.56C15.6 80.424 14.704 81.12 13.664 81.648L11.672 79.104C12.616 78.656 13.424 78.072 14.096 77.352C14.784 76.632 15.352 75.816 15.8 74.904C16.264 73.976 16.6 73 16.808 71.976C17.032 70.936 17.144 69.888 17.144 68.832V65.592ZM17.792 65.592H20.336V68.832C20.336 69.872 20.44 70.904 20.648 71.928C20.856 72.936 21.168 73.88 21.584 74.76C22.016 75.64 22.568 76.424 23.24 77.112C23.912 77.784 24.712 78.328 25.64 78.744L23.72 81.288C22.68 80.776 21.784 80.104 21.032 79.272C20.28 78.424 19.664 77.456 19.184 76.368C18.72 75.28 18.368 74.096 18.128 72.816C17.904 71.536 17.792 70.208 17.792 68.832V65.592ZM27.44 63.864H30.632V86.16H27.44V63.864ZM42.4621 76.392H45.6541V79.776H42.4621V76.392ZM34.0381 74.472H54.1501V77.016H34.0381V74.472ZM36.2701 78.888H51.7261V86.136H48.5341V81.408H36.2701V78.888ZM36.6061 64.464H39.7501V66.408H48.4381V64.464H51.6061V73.032H36.6061V64.464ZM39.7501 68.808V70.536H48.4381V68.808H39.7501ZM58.4443 65.184H72.3643V67.704H58.4443V65.184ZM56.1403 74.64H76.2523V77.232H56.1403V74.64ZM64.4683 76.464H67.6843V86.136H64.4683V76.464ZM70.7323 65.184H73.8763V67.152C73.8763 67.952 73.8603 68.8 73.8283 69.696C73.8123 70.592 73.7483 71.576 73.6363 72.648C73.5243 73.704 73.3163 74.888 73.0123 76.2L69.8923 75.816C70.3083 73.976 70.5483 72.368 70.6123 70.992C70.6923 69.6 70.7323 68.32 70.7323 67.152V65.184ZM20.408 103.64H23.576V106.736H20.408V103.64ZM14.528 93.224H17.672V94.688H26.36V93.224H29.528V100.688H14.528V93.224ZM17.672 97.016V98.312H26.36V97.016H17.672ZM11.96 101.84H32.072V104.36H11.96V101.84ZM14.264 105.728H29.624V111.392H17.456V113.408H14.288V109.184H26.48V108.056H14.264V105.728ZM14.288 112.592H30.224V114.992H14.288V112.592ZM48.3661 92.888H51.5821V105.728H48.3661V92.888ZM50.6701 98.144H54.4861V100.76H50.6701V98.144ZM44.2861 106.112C45.8221 106.112 47.1501 106.296 48.2701 106.664C49.3901 107.032 50.2541 107.552 50.8621 108.224C51.4861 108.88 51.7981 109.68 51.7981 110.624C51.7981 111.568 51.4861 112.376 50.8621 113.048C50.2541 113.736 49.3901 114.256 48.2701 114.608C47.1501 114.976 45.8221 115.16 44.2861 115.16C42.7661 115.16 41.4381 114.976 40.3021 114.608C39.1661 114.256 38.2861 113.736 37.6621 113.048C37.0541 112.376 36.7501 111.568 36.7501 110.624C36.7501 109.68 37.0541 108.88 37.6621 108.224C38.2861 107.552 39.1661 107.032 40.3021 106.664C41.4381 106.296 42.7661 106.112 44.2861 106.112ZM44.2861 108.656C43.3421 108.656 42.5501 108.728 41.9101 108.872C41.2701 109.016 40.7741 109.232 40.4221 109.52C40.0861 109.808 39.9181 110.176 39.9181 110.624C39.9181 111.056 40.0861 111.424 40.4221 111.728C40.7741 112.016 41.2701 112.232 41.9101 112.376C42.5501 112.52 43.3421 112.592 44.2861 112.592C45.2301 112.592 46.0221 112.52 46.6621 112.376C47.3181 112.232 47.8141 112.016 48.1501 111.728C48.4861 111.424 48.6541 111.056 48.6541 110.624C48.6541 110.176 48.4861 109.808 48.1501 109.52C47.8141 109.232 47.3181 109.016 46.6621 108.872C46.0221 108.728 45.2301 108.656 44.2861 108.656ZM34.8061 102.008H36.6781C38.3101 102.008 39.7021 101.992 40.8541 101.96C42.0061 101.928 43.0381 101.864 43.9501 101.768C44.8621 101.656 45.7661 101.504 46.6621 101.312L46.9741 103.856C46.0621 104.048 45.1341 104.2 44.1901 104.312C43.2461 104.408 42.1741 104.48 40.9741 104.528C39.7901 104.56 38.3581 104.576 36.6781 104.576H34.8061V102.008ZM34.8061 94.376H44.7661V96.944H37.9981V103.76H34.8061V94.376ZM62.1257 113V110.341L68.3388 104.588C68.8672 104.077 69.3104 103.616 69.6683 103.207C70.032 102.798 70.3075 102.398 70.495 102.006C70.6825 101.608 70.7763 101.179 70.7763 100.719C70.7763 100.207 70.6598 99.767 70.4268 99.3977C70.1939 99.0227 69.8757 98.7358 69.4723 98.5369C69.0689 98.3324 68.6115 98.2301 68.1001 98.2301C67.5661 98.2301 67.1001 98.3381 66.7024 98.554C66.3047 98.7699 65.9979 99.0795 65.782 99.483C65.5661 99.8864 65.4581 100.366 65.4581 100.923H61.9553C61.9553 99.7812 62.2138 98.7898 62.7308 97.9489C63.2479 97.108 63.9723 96.4574 64.9041 95.9972C65.8359 95.5369 66.9098 95.3068 68.1257 95.3068C69.3757 95.3068 70.4638 95.5284 71.3899 95.9716C72.3217 96.4091 73.0462 97.017 73.5632 97.7955C74.0803 98.5739 74.3388 99.4659 74.3388 100.472C74.3388 101.131 74.2081 101.781 73.9467 102.423C73.6911 103.065 73.2337 103.778 72.5746 104.562C71.9155 105.341 70.9865 106.276 69.7876 107.366L67.2393 109.864V109.983H74.5689V113H62.1257ZM76.8361 103.352H96.9241V105.872H76.8361V103.352ZM85.2841 100.016H88.4761V104.336H85.2841V100.016ZM79.2601 99.008H94.6441V101.504H79.2601V99.008ZM79.2601 93.848H94.5241V96.368H82.4281V100.592H79.2601V93.848ZM86.7961 106.976C89.1961 106.976 91.0841 107.336 92.4601 108.056C93.8361 108.76 94.5241 109.768 94.5241 111.08C94.5241 112.376 93.8361 113.376 92.4601 114.08C91.0841 114.8 89.1961 115.16 86.7961 115.16C84.3961 115.16 82.5081 114.8 81.1321 114.08C79.7721 113.376 79.0921 112.376 79.0921 111.08C79.0921 109.768 79.7721 108.76 81.1321 108.056C82.5081 107.336 84.3961 106.976 86.7961 106.976ZM86.7961 109.4C85.8041 109.4 84.9721 109.464 84.3001 109.592C83.6441 109.704 83.1481 109.888 82.8121 110.144C82.4761 110.384 82.3081 110.688 82.3081 111.056C82.3081 111.44 82.4761 111.76 82.8121 112.016C83.1481 112.256 83.6441 112.44 84.3001 112.568C84.9721 112.68 85.8041 112.736 86.7961 112.736C87.7881 112.736 88.6121 112.68 89.2681 112.568C89.9401 112.44 90.4441 112.256 90.7801 112.016C91.1161 111.76 91.2841 111.44 91.2841 111.056C91.2841 110.688 91.1161 110.384 90.7801 110.144C90.4441 109.888 89.9401 109.704 89.2681 109.592C88.6121 109.464 87.7881 109.4 86.7961 109.4Z" fill="white"/>
</svg>
