<svg width="449" height="283" viewBox="0 0 449 283" fill="none" xmlns="http://www.w3.org/2000/svg">
<path d="M41.7951 195.474L8.77805 217.453L1 235.677C2.3228 244.58 5.12713 263.026 5.76207 265.585C6.39702 268.145 19.3604 277.595 25.7628 282L98.305 279.635L134.338 265.585L155.45 241.798L211.166 231.921L282.121 206.464L371.172 180.729L373.87 150.403L371.172 116.739L391.966 96.1505C404.771 89.2878 430.92 74.8112 433.079 71.8064C435.238 68.8017 443.926 53.1195 448 45.654C443.026 37.1683 432.539 19.8632 430.38 18.5277C428.222 17.1923 400.485 6.28614 386.887 1L327.996 16.0238L268.47 45.654L224.024 80.9876L199.737 86.1347L177.832 66.6594L155.45 53.1658L150.053 61.0951L114.655 106.445L73.2248 144.56L41.7951 195.474Z" fill="#020715" fill-opacity="0.65" stroke="#044778" stroke-opacity="0.2"/>
</svg>
