<svg width="85" height="20" viewBox="0 0 85 20" fill="none" xmlns="http://www.w3.org/2000/svg">
<path d="M0 10C0 4.47715 4.47715 0 10 0H74.8047C80.3275 0 84.8047 4.47715 84.8047 10V10C84.8047 15.5228 80.3275 20 74.8047 20H10C4.47715 20 0 15.5228 0 10V10Z" fill="#FEF9C3"/>
<g clip-path="url(#clip0_340_117)">
<path d="M18.0002 16.6663C21.6821 16.6663 24.6668 13.6816 24.6668 9.99967C24.6668 6.31778 21.6821 3.33301 18.0002 3.33301C14.3183 3.33301 11.3335 6.31778 11.3335 9.99967C11.3335 13.6816 14.3183 16.6663 18.0002 16.6663Z" stroke="#854D0E" stroke-width="2" stroke-linecap="round" stroke-linejoin="round"/>
<path d="M18 7.33301V9.99967" stroke="#854D0E" stroke-width="2" stroke-linecap="round" stroke-linejoin="round"/>
<path d="M18 12.667H18.0067" stroke="#854D0E" stroke-width="2" stroke-linecap="round" stroke-linejoin="round"/>
</g>
<path d="M37.2522 5.5646H38.0988V14.8058H37.2522V5.5646ZM35.2734 9.2672H37.497V9.9608H35.2734V9.2672ZM32.856 7.7576H33.5292V8.5532C33.5292 9.036 33.468 9.5086 33.3456 9.971C33.2232 10.4266 33.0464 10.8516 32.8152 11.246C32.584 11.6404 32.3154 11.9906 32.0094 12.2966C31.7034 12.5958 31.3668 12.8338 30.9996 13.0106L30.5304 12.3578C30.8636 12.1946 31.173 11.9804 31.4586 11.7152C31.7442 11.45 31.9924 11.1474 32.2032 10.8074C32.414 10.4674 32.5738 10.107 32.6826 9.7262C32.7982 9.3386 32.856 8.9476 32.856 8.5532V7.7576ZM33.0192 7.7576H33.6924V8.5532C33.6924 8.934 33.7502 9.308 33.8658 9.6752C33.9882 10.0356 34.1548 10.379 34.3656 10.7054C34.5764 11.0318 34.8246 11.3242 35.1102 11.5826C35.4026 11.8342 35.7188 12.0382 36.0588 12.1946L35.5896 12.8474C35.2156 12.6774 34.8722 12.4462 34.5594 12.1538C34.2466 11.8614 33.9746 11.5282 33.7434 11.1542C33.5122 10.7734 33.332 10.362 33.2028 9.92C33.0804 9.478 33.0192 9.0224 33.0192 8.5532V7.7576ZM30.7752 7.166H35.7426V7.8494H30.7752V7.166ZM32.856 5.738H33.7026V7.5434H32.856V5.738ZM46.615 5.5646H47.4514V14.8058H46.615V5.5646ZM40.4236 11.8682H41.1886C41.7122 11.8682 42.2154 11.8614 42.6982 11.8478C43.1878 11.8274 43.6808 11.7934 44.1772 11.7458C44.6804 11.6982 45.204 11.6302 45.748 11.5418L45.8296 12.2354C45 12.3714 44.218 12.4632 43.4836 12.5108C42.7492 12.5516 41.9842 12.572 41.1886 12.572H40.4236V11.8682ZM40.4032 6.4214H44.6668V9.716H41.2804V12.1334H40.4236V9.0326H43.81V7.115H40.4032V6.4214ZM58.9934 5.5646H59.7992V14.7956H58.9934V5.5646ZM57.4328 9.2672H59.2076V9.9608H57.4328V9.2672ZM56.9024 5.7686H57.6878V14.3162H56.9024V5.7686ZM52.3022 11.807H52.904C53.3596 11.807 53.771 11.8036 54.1382 11.7968C54.5122 11.7832 54.8658 11.756 55.199 11.7152C55.539 11.6744 55.8858 11.6166 56.2394 11.5418L56.321 12.2456C55.9538 12.3204 55.5968 12.3782 55.25 12.419C54.91 12.4598 54.5496 12.487 54.1688 12.5006C53.7948 12.5142 53.3732 12.521 52.904 12.521H52.3022V11.807ZM52.3022 6.6866H55.7294V7.3802H53.1488V12.1334H52.3022V6.6866ZM68.0808 5.5646H68.9274V14.7956H68.0808V5.5646ZM65.3778 6.5642H66.2142C66.2142 7.2306 66.1326 7.8732 65.9694 8.492C65.813 9.1108 65.5648 9.699 65.2248 10.2566C64.8848 10.8074 64.4428 11.3208 63.8988 11.7968C63.3548 12.2728 62.6952 12.6978 61.92 13.0718L61.4712 12.3884C62.362 11.96 63.0964 11.4602 63.6744 10.889C64.2524 10.3178 64.6808 9.682 64.9596 8.9816C65.2384 8.2744 65.3778 7.5128 65.3778 6.6968V6.5642ZM61.8996 6.5642H65.7348V7.2476H61.8996V6.5642Z" fill="#854D0E"/>
<defs>
<clipPath id="clip0_340_117">
<rect width="16" height="16" fill="white" transform="translate(10 2)"/>
</clipPath>
</defs>
</svg>
